<?xml version="1.0" encoding="UTF-8" standalone="no"?>
<!-- Created with Inkscape (http://www.inkscape.org/) -->

<svg
   xmlns:dc="http://purl.org/dc/elements/1.1/"
   xmlns:cc="http://creativecommons.org/ns#"
   xmlns:rdf="http://www.w3.org/1999/02/22-rdf-syntax-ns#"
   xmlns:svg="http://www.w3.org/2000/svg"
   xmlns="http://www.w3.org/2000/svg"
   xmlns:sodipodi="http://sodipodi.sourceforge.net/DTD/sodipodi-0.dtd"
   xmlns:inkscape="http://www.inkscape.org/namespaces/inkscape"
   width="210mm"
   height="297mm"
   viewBox="0 0 210 297"
   version="1.1"
   id="svg57"
   sodipodi:docname="grillee-auto-2.svg"
   inkscape:version="0.92.5 (2060ec1f9f, 2020-04-08)"
   inkscape:export-filename="/home/tobi/Documents/grillee-auto-2.svg.png"
   inkscape:export-xdpi="150.0047"
   inkscape:export-ydpi="150.0047">
  <defs
     id="defs51" />
  <sodipodi:namedview
     id="base"
     pagecolor="#ffffff"
     bordercolor="#666666"
     borderopacity="1.0"
     inkscape:pageopacity="0.0"
     inkscape:pageshadow="2"
     inkscape:zoom="1.0648855"
     inkscape:cx="213.52778"
     inkscape:cy="560.279"
     inkscape:document-units="mm"
     inkscape:current-layer="layer1"
     showgrid="false"
     inkscape:window-width="1920"
     inkscape:window-height="1026"
     inkscape:window-x="0"
     inkscape:window-y="0"
     inkscape:window-maximized="1" />
  <metadata
     id="metadata54">
    <rdf:RDF>
      <cc:Work
         rdf:about="">
        <dc:format>image/svg+xml</dc:format>
        <dc:type
           rdf:resource="http://purl.org/dc/dcmitype/StillImage" />
      </cc:Work>
    </rdf:RDF>
  </metadata>
  <g
     inkscape:groupmode="layer"
     id="layer5"
     inkscape:label="Layer 2"
     style="display:inline">
    <ellipse
       style="fill:#ffffff;fill-opacity:1;stroke:none;stroke-width:1.64810359;stroke-miterlimit:4;stroke-dasharray:none;stroke-opacity:1"
       id="path4897"
       cx="106.55352"
       cy="109.70662"
       rx="101.41789"
       ry="32.005169"
       transform="matrix(0.999997,0.00244988,0,1,0,0)" />
    <ellipse
       transform="matrix(0.999997,0.00244988,0,1,0,0)"
       ry="32.005169"
       rx="101.41789"
       cy="109.70662"
       cx="106.55352"
       id="ellipse4912"
       style="fill:#ffffff;fill-opacity:1;stroke:none;stroke-width:1.64810359;stroke-miterlimit:4;stroke-dasharray:none;stroke-opacity:1" />
  </g>
  <g
     inkscape:groupmode="layer"
     id="layer2"
     inkscape:label="korpus"
     style="display:inline">
    <path
       style="fill:#2c4571;fill-opacity:1;stroke:#000000;stroke-width:0.26458332px;stroke-linecap:butt;stroke-linejoin:miter;stroke-opacity:1"
       d="m 6.8326983,114.50484 6.2115437,8.82039 18.634632,9.93847 31.430412,7.98302 27.330792,2.70083 36.758752,-0.14836 38.3002,-5.27067 23.95306,-8.24636 17.14386,-15.52886 0.24846,3.54058 -1.11807,10.18693 -4.03751,24.28714 -5.47193,25.43699 -5.57238,18.23507 -4.00645,10.21902 -4.26345,9.95912 -3.48216,6.40236 -1.98769,2.79519 -2.79519,2.91943 -5.09347,3.85116 -6.52212,3.60269 -13.2927,4.96924 -12.48521,2.79519 -12.4852,1.49077 -13.35482,0.74539 -10.7238,0.4191 -12.631605,-1.5993 -17.827133,-2.67096 -8.634045,-2.11193 -11.491356,-4.41019 -6.522122,-3.41635 -4.472311,-3.35423 -4.285966,-4.09962 -3.851156,-6.46001 -5.093467,-11.73982 -5.279812,-14.53501 -2.111925,-5.6525 -1.863463,-5.34193 -1.863463,-7.26751 -1.615002,-7.20539 L 10.19971,154.3562 7.8181601,141.16386 5.776736,121.89657 5.5903896,114.69118 Z"
       id="path4823"
       inkscape:connector-curvature="0" />
  </g>
  <g
     inkscape:groupmode="layer"
     id="layer3"
     inkscape:label="stäbe"
     style="display:inline">
    <path
       style="fill:none;stroke:#aaaaaa;stroke-width:0.66500002;stroke-linecap:butt;stroke-linejoin:miter;stroke-miterlimit:4;stroke-dasharray:none;stroke-opacity:1"
       d="m 37.246067,90.040462 73.086623,-8.78445"
       id="path4667"
       inkscape:connector-curvature="0" />
    <path
       style="fill:none;stroke:#aaaaaa;stroke-width:0.66500002;stroke-linecap:butt;stroke-linejoin:miter;stroke-miterlimit:4;stroke-dasharray:none;stroke-opacity:1"
       d="M 18.510401,97.360974 138.89012,82.70173"
       id="path4650"
       inkscape:connector-curvature="0" />
    <path
       style="fill:none;stroke:#aaaaaa;stroke-width:0.66500002;stroke-linecap:butt;stroke-linejoin:miter;stroke-miterlimit:4;stroke-dasharray:none;stroke-opacity:1"
       d="M 24.038679,93.634047 C 52.561523,91.36783 90.874889,86.221606 131.00146,81.335192"
       id="path4650-6"
       inkscape:connector-curvature="0"
       sodipodi:nodetypes="cc" />
    <path
       style="fill:none;stroke:#aaaaaa;stroke-width:0.66500002;stroke-linecap:butt;stroke-linejoin:miter;stroke-miterlimit:4;stroke-dasharray:none;stroke-opacity:1"
       d="M 15.109254,100.22832 148.98427,83.889246"
       id="path4669"
       inkscape:connector-curvature="0" />
    <path
       style="fill:none;stroke:#aaaaaa;stroke-width:0.6700359;stroke-linecap:butt;stroke-linejoin:miter;stroke-miterlimit:4;stroke-dasharray:none;stroke-opacity:1"
       d="M 11.946582,103.21418 116.90126,89.78289"
       id="path4671"
       inkscape:connector-curvature="0"
       sodipodi:nodetypes="cc" />
    <path
       style="fill:none;stroke:#aaaaaa;stroke-width:0.66500002;stroke-linecap:butt;stroke-linejoin:miter;stroke-miterlimit:4;stroke-dasharray:none;stroke-opacity:1"
       d="M 75.282734,97.505144 9.1358277,105.67468"
       id="path4673"
       inkscape:connector-curvature="0"
       sodipodi:nodetypes="cc" />
    <path
       style="fill:none;stroke:#aaaaaa;stroke-width:0.66500002;stroke-linecap:butt;stroke-linejoin:miter;stroke-miterlimit:4;stroke-dasharray:none;stroke-opacity:1"
       d="M 67.288884,101.19462 7.3789378,109.18846"
       id="path4675"
       inkscape:connector-curvature="0"
       sodipodi:nodetypes="cc" />
    <path
       style="fill:none;stroke:#aaaaaa;stroke-width:0.66500002;stroke-linecap:butt;stroke-linejoin:miter;stroke-miterlimit:4;stroke-dasharray:none;stroke-opacity:1"
       d="M 64.126482,104.5327 7.0811601,111.89599"
       id="path4677"
       inkscape:connector-curvature="0" />
    <path
       style="fill:none;stroke:#aaaaaa;stroke-width:0.66500002;stroke-linecap:butt;stroke-linejoin:miter;stroke-miterlimit:4;stroke-dasharray:none;stroke-opacity:1"
       d="M 63.978903,107.54791 6.8326983,114.50484"
       id="path4679"
       inkscape:connector-curvature="0" />
    <path
       style="fill:none;stroke:#aaaaaa;stroke-width:0.66500002;stroke-linecap:butt;stroke-linejoin:miter;stroke-miterlimit:4;stroke-dasharray:none;stroke-opacity:1"
       d="M 65.63912,109.98106 7.9507762,117.73484"
       id="path4681"
       inkscape:connector-curvature="0"
       sodipodi:nodetypes="cc" />
    <path
       style="fill:none;stroke:#aaaaaa;stroke-width:0.66500002;stroke-linecap:butt;stroke-linejoin:miter;stroke-miterlimit:4;stroke-dasharray:none;stroke-opacity:1"
       d="m 68.293184,112.00515 -57.85779,8.21431"
       id="path4683"
       inkscape:connector-curvature="0"
       sodipodi:nodetypes="cc" />
    <path
       style="fill:none;stroke:#aaaaaa;stroke-width:0.66500002;stroke-linecap:butt;stroke-linejoin:miter;stroke-miterlimit:4;stroke-dasharray:none;stroke-opacity:1"
       d="m 72.556005,114.47469 -59.511763,8.85054"
       id="path4685"
       inkscape:connector-curvature="0"
       sodipodi:nodetypes="cc" />
    <path
       style="fill:none;stroke:#aaaaaa;stroke-width:0.66500002;stroke-linecap:butt;stroke-linejoin:miter;stroke-miterlimit:4;stroke-dasharray:none;stroke-opacity:1"
       d="M 78.448901,116.32308 17.01963,125.43715"
       id="path4687"
       inkscape:connector-curvature="0"
       sodipodi:nodetypes="cc" />
    <path
       style="fill:none;stroke:#aaaaaa;stroke-width:0.66500002;stroke-linecap:butt;stroke-linejoin:miter;stroke-miterlimit:4;stroke-dasharray:none;stroke-opacity:1"
       d="M 87.092533,118.03217 20.125402,128.41869"
       id="path4689"
       inkscape:connector-curvature="0"
       sodipodi:nodetypes="cc" />
    <path
       style="fill:none;stroke:#aaaaaa;stroke-width:0.66500002;stroke-linecap:butt;stroke-linejoin:miter;stroke-miterlimit:4;stroke-dasharray:none;stroke-opacity:1"
       d="m 98.323698,119.1201 c -21.92197,3.67779 -48.077288,8.12403 -71.632788,12.01036"
       id="path4691"
       inkscape:connector-curvature="0"
       sodipodi:nodetypes="cc" />
    <path
       style="fill:none;stroke:#aaaaaa;stroke-width:0.66500002;stroke-linecap:butt;stroke-linejoin:miter;stroke-miterlimit:4;stroke-dasharray:none;stroke-opacity:1"
       d="M 138.51743,117.61061 31.678874,133.2637"
       id="path4693"
       inkscape:connector-curvature="0"
       sodipodi:nodetypes="cc" />
    <path
       style="fill:none;stroke:#aaaaaa;stroke-width:0.66500002;stroke-linecap:butt;stroke-linejoin:miter;stroke-miterlimit:4;stroke-dasharray:none;stroke-opacity:1"
       d="M 36.772339,135.37562 205.72633,112.39291"
       id="path4719"
       inkscape:connector-curvature="0" />
    <path
       style="fill:none;stroke:#aaaaaa;stroke-width:0.66500002;stroke-linecap:butt;stroke-linejoin:miter;stroke-miterlimit:4;stroke-dasharray:none;stroke-opacity:1"
       d="M 198.39671,125.59363 72.426602,142.61326"
       id="path4721"
       inkscape:connector-curvature="0" />
    <path
       style="fill:none;stroke:#aaaaaa;stroke-width:0.66500002;stroke-linecap:butt;stroke-linejoin:miter;stroke-miterlimit:4;stroke-dasharray:none;stroke-opacity:1"
       d="M 202.86902,121.8667 63.109286,141.24672"
       id="path4723"
       inkscape:connector-curvature="0" />
    <path
       style="fill:none;stroke:#aaaaaa;stroke-width:0.66500002;stroke-linecap:butt;stroke-linejoin:miter;stroke-miterlimit:4;stroke-dasharray:none;stroke-opacity:1"
       d="M 54.785818,139.35101 204.48403,118.72868"
       id="path4725"
       inkscape:connector-curvature="0" />
    <path
       style="fill:none;stroke:#aaaaaa;stroke-width:0.66500002;stroke-linecap:butt;stroke-linejoin:miter;stroke-miterlimit:4;stroke-dasharray:none;stroke-opacity:1"
       d="M 206.59595,114.7533 43.977731,137.36332"
       id="path4727"
       inkscape:connector-curvature="0" />
    <path
       style="fill:none;stroke:#aaaaaa;stroke-width:0.66500002;stroke-linecap:butt;stroke-linejoin:miter;stroke-miterlimit:4;stroke-dasharray:none;stroke-opacity:1"
       d="m 90.44008,143.94755 99.01201,-13.66539"
       id="path4768"
       inkscape:connector-curvature="0"
       sodipodi:nodetypes="cc" />
    <path
       style="fill:none;stroke:#aaaaaa;stroke-width:0.66500002;stroke-linecap:butt;stroke-linejoin:miter;stroke-miterlimit:4;stroke-dasharray:none;stroke-opacity:1"
       d="M 157.64898,85.186347 116.90126,89.78289"
       id="path4695"
       inkscape:connector-curvature="0" />
    <path
       style="fill:none;stroke:#aaaaaa;stroke-width:0.66500002;stroke-linecap:butt;stroke-linejoin:miter;stroke-miterlimit:4;stroke-dasharray:none;stroke-opacity:1"
       d="m 164.71873,86.631905 c -18.81226,2.4731 -38.17489,5.038134 -54.38494,6.574335"
       id="path4697"
       inkscape:connector-curvature="0"
       sodipodi:nodetypes="cc" />
    <path
       style="fill:none;stroke:#aaaaaa;stroke-width:0.66500002;stroke-linecap:butt;stroke-linejoin:miter;stroke-miterlimit:4;stroke-dasharray:none;stroke-opacity:1"
       d="m 171.09713,88.546824 -45.66701,6.22296"
       id="path4699"
       inkscape:connector-curvature="0"
       sodipodi:nodetypes="cc" />
    <path
       style="fill:none;stroke:#aaaaaa;stroke-width:0.66500002;stroke-linecap:butt;stroke-linejoin:miter;stroke-miterlimit:4;stroke-dasharray:none;stroke-opacity:1"
       d="m 179.51986,90.622364 -44.36092,5.825451"
       id="path4701"
       inkscape:connector-curvature="0"
       sodipodi:nodetypes="cc" />
    <path
       style="fill:none;stroke:#aaaaaa;stroke-width:0.66500002;stroke-linecap:butt;stroke-linejoin:miter;stroke-miterlimit:4;stroke-dasharray:none;stroke-opacity:1"
       d="m 186.22209,93.385586 -44.49232,5.417285"
       id="path4703"
       inkscape:connector-curvature="0"
       sodipodi:nodetypes="cc" />
    <path
       style="fill:none;stroke:#aaaaaa;stroke-width:0.66500002;stroke-linecap:butt;stroke-linejoin:miter;stroke-miterlimit:4;stroke-dasharray:none;stroke-opacity:1"
       d="M 191.19132,95.373279 145.714,101.00264"
       id="path4705"
       inkscape:connector-curvature="0"
       sodipodi:nodetypes="cc" />
    <path
       style="fill:none;stroke:#aaaaaa;stroke-width:0.66500002;stroke-linecap:butt;stroke-linejoin:miter;stroke-miterlimit:4;stroke-dasharray:none;stroke-opacity:1"
       d="m 194.54556,97.609437 -46.40465,5.774903"
       id="path4707"
       inkscape:connector-curvature="0"
       sodipodi:nodetypes="cc" />
    <path
       style="fill:none;stroke:#aaaaaa;stroke-width:0.66500002;stroke-linecap:butt;stroke-linejoin:miter;stroke-miterlimit:4;stroke-dasharray:none;stroke-opacity:1"
       d="M 198.64517,100.34252 149.5589,105.9932"
       id="path4709"
       inkscape:connector-curvature="0"
       sodipodi:nodetypes="cc" />
    <path
       style="fill:none;stroke:#aaaaaa;stroke-width:0.66500002;stroke-linecap:butt;stroke-linejoin:miter;stroke-miterlimit:4;stroke-dasharray:none;stroke-opacity:1"
       d="m 201.03442,102.83596 -52.46183,5.74477"
       id="path4711"
       inkscape:connector-curvature="0"
       sodipodi:nodetypes="cc" />
    <path
       style="fill:none;stroke:#aaaaaa;stroke-width:0.66500002;stroke-linecap:butt;stroke-linejoin:miter;stroke-miterlimit:4;stroke-dasharray:none;stroke-opacity:1"
       d="m 146.69277,111.07783 56.54895,-6.13877"
       id="path4713"
       inkscape:connector-curvature="0"
       sodipodi:nodetypes="cc" />
    <path
       style="fill:none;stroke:#aaaaaa;stroke-width:0.66500002;stroke-linecap:butt;stroke-linejoin:miter;stroke-miterlimit:4;stroke-dasharray:none;stroke-opacity:1"
       d="m 138.84339,114.95913 65.76487,-7.65969"
       id="path4715"
       inkscape:connector-curvature="0"
       sodipodi:nodetypes="cc" />
    <path
       style="fill:none;stroke:#aaaaaa;stroke-width:0.66500002;stroke-linecap:butt;stroke-linejoin:miter;stroke-miterlimit:4;stroke-dasharray:none;stroke-opacity:1"
       d="m 138.51743,117.61061 67.45737,-7.70232"
       id="path4717"
       inkscape:connector-curvature="0" />
  </g>
  <g
     inkscape:label="Layer 1"
     inkscape:groupmode="layer"
     id="layer1"
     style="display:inline">
    <path
       style="fill:#000000;stroke-width:0.26458332"
       d="m 100.15226,246.60867 c -14.043477,-0.68145 -33.915281,-3.85158 -39.819794,-6.35241 -0.291041,-0.12326 -1.422135,-0.48124 -2.513541,-0.79548 -4.18265,-1.20432 -10.78479,-4.17798 -14.772275,-6.65356 -0.970301,-0.6024 -2.861924,-1.96818 -4.203605,-3.03507 -5.996826,-4.76861 -8.828323,-9.90076 -15.811505,-28.6587 -1.543966,-4.14735 -3.154048,-8.43359 -3.577961,-9.525 -2.872531,-7.39566 -5.230874,-14.63174 -7.717951,-27.69355 l -1.535918,-9.5387 c 0.79471,3.84061 1.971054,9.15568 3.108599,14.16214 0.313319,2.93663 1.482241,5.95817 2.191576,8.87058 0.867497,3.44868 3.580776,12.05623 4.309192,13.67038 0.229841,0.50933 0.901981,2.27331 1.493644,3.91997 1.352797,3.76496 4.430372,11.70855 6.01557,15.52691 5.870128,14.1397 9.460272,18.28376 20.843343,24.05922 4.501965,2.28417 9.559959,4.20203 12.170833,4.61487 0.873125,0.13805 2.837657,0.68989 4.365625,1.22629 3.357764,1.17876 5.377463,1.74312 6.614584,1.84828 0.509323,0.0433 1.104635,0.14066 1.322916,0.21637 1.926529,0.66816 15.834855,2.49998 23.680209,3.11883 4.937949,0.38951 20.505589,0.12584 25.267709,-0.42796 1.81901,-0.21154 3.64318,-0.38382 4.05371,-0.38285 4.90091,-0.0568 11.85961,-1.64838 18.82204,-3.03505 l 1.69387,-0.34834 c 2.81322,-0.57853 10.9647,-3.38747 14.58871,-5.02716 7.50183,-3.39422 10.7725,-5.45713 14.24249,-8.98316 2.83101,-2.87673 4.05178,-4.6727 6.39464,-9.40762 0.9188,-1.85691 1.7284,-3.31835 1.79909,-3.24765 0.0707,0.0707 -0.78382,1.99276 -1.89892,4.27126 -5.12361,10.46905 -11.3907,15.14975 -28.46862,21.26236 -8.30563,2.97279 -19.88776,4.95051 -34.79889,5.94211 -7.89481,0.52501 -12.9773,0.63961 -17.85937,0.40271 z m 6.76281,-28.43775 c -0.43842,-0.33161 -0.50662,-0.68718 -0.46785,-2.43898 0.33189,-14.99428 0.64599,-26.39831 0.85579,-31.07165 0.14167,-3.15564 0.25758,-6.85253 0.25758,-8.21531 0,-2.74042 0.17408,-3.11278 1.45521,-3.11278 0.45111,0 0.96308,0.14287 1.13771,0.3175 0.39334,0.39334 0.41797,6.66948 0.0652,16.61583 -0.13677,3.8563 -0.31445,9.86896 -0.39484,13.36146 -0.0804,3.4925 -0.22339,8.17534 -0.31778,10.40631 -0.16822,3.97591 -0.1843,4.06113 -0.81121,4.29948 -0.85753,0.32603 -1.17268,0.29737 -1.77982,-0.16186 z m 2.06592,-4.94293 c 0.41986,-10.7008 0.82126,-26.5767 0.82474,-32.61975 l 0.004,-6.61458 h -0.79375 c -0.76352,0 -0.80073,0.0554 -0.97699,1.45521 -0.10078,0.80036 -0.30841,8.1227 -0.46139,16.27187 -0.15298,8.14917 -0.33488,15.35245 -0.40422,16.00729 -0.0693,0.65485 -0.14578,3.07067 -0.16987,5.3685 -0.0399,3.80616 2.5e-4,4.21009 0.45141,4.53999 0.31847,0.23287 0.64902,0.27978 0.92619,0.13145 0.35973,-0.19252 0.45893,-0.94302 0.60006,-4.53998 z m 15.86801,4.64011 c 0.0855,-0.0855 10e-4,-0.37571 -0.18749,-0.64497 -0.24966,-0.35644 -0.28577,-0.90452 -0.1328,-2.01576 0.70877,-5.14893 1.57434,-14.53725 2.49472,-27.0585 0.22997,-3.1287 0.56983,-7.73762 0.75523,-10.24204 0.2105,-2.84335 0.4641,-4.70653 0.67525,-4.96094 0.36355,-0.43806 1.76757,-0.54231 2.34812,-0.17435 0.48569,0.30783 0.14311,6.35221 -1.28393,22.65337 -0.28026,3.20146 -0.63159,7.36864 -0.78072,9.26041 -0.33777,4.28457 -1.06382,10.52803 -1.37503,11.82415 -0.13218,0.55052 -0.43373,1.03635 -0.69151,1.11409 -0.82223,0.24797 -1.98078,0.40348 -1.82184,0.24454 z m 1.87282,-1.36712 c 0.19228,-0.64187 1.40716,-10.90906 1.60162,-13.53545 0.0916,-1.23693 0.39564,-4.86833 0.6757,-8.06979 0.28007,-3.20146 0.69442,-8.7974 0.92079,-12.43542 0.22637,-3.63802 0.47824,-6.989 0.55971,-7.44661 0.16471,-0.92513 -0.25669,-1.94609 -0.80325,-1.94609 -0.8088,0 -1.01829,0.87943 -1.37052,5.75348 -1.2949,17.91846 -1.77833,23.58788 -2.89312,33.92901 -0.38147,3.53859 -0.37985,3.85573 0.0212,4.14902 0.52328,0.38262 1.10812,0.20182 1.28783,-0.39815 z m -37.77737,0.68591 c -0.249952,-0.39991 -0.427961,-1.85462 -0.542301,-4.43178 -0.09362,-2.11005 -0.281281,-6.3963 -0.417031,-9.525 -0.13575,-3.12869 -0.330509,-11.15287 -0.4328,-17.83151 -0.17821,-11.63558 -0.165491,-12.15795 0.304424,-12.50156 0.66239,-0.48435 1.279824,-0.45104 1.935652,0.10443 0.527363,0.44666 0.551916,0.78552 0.694995,9.59115 0.08158,5.02046 0.344098,14.80792 0.583385,21.7499 0.354311,10.27909 0.37207,12.69769 0.09567,13.03073 -0.516811,0.62272 -1.782646,0.51655 -2.221992,-0.18636 z m 1.656508,-0.17659 c 0.308288,-0.19519 0.340691,-1.20625 0.192781,-6.01522 -0.09779,-3.17932 -0.236011,-6.85215 -0.307165,-8.16184 -0.07115,-1.30969 -0.253124,-8.33437 -0.404381,-15.61042 -0.258308,-12.42541 -0.305488,-13.25999 -0.77659,-13.73655 -0.438703,-0.44379 -0.558331,-0.46038 -0.954357,-0.1323 -0.420031,0.34797 -0.439743,1.23635 -0.272529,12.28135 0.272455,17.99632 0.816586,30.0966 1.395034,31.0224 0.407575,0.65232 0.572376,0.70387 1.127207,0.35258 z m -18.14459,-1.26439 c -0.316855,-0.0617 -0.708893,-0.27216 -0.871199,-0.46772 -0.309753,-0.37323 -1.662194,-10.65571 -2.121072,-16.1263 -0.147532,-1.7588 -0.390911,-4.56704 -0.540848,-6.24052 -0.376322,-4.20029 -0.756878,-10.27211 -0.92035,-14.68438 -0.07548,-2.03729 -0.195107,-4.40633 -0.265835,-5.26453 -0.15027,-1.82335 0.111614,-2.27609 1.31658,-2.27609 1.083744,0 1.465281,0.75836 1.465281,2.91248 0,0.86058 0.12038,2.73021 0.267512,4.15474 0.147132,1.42454 0.444291,5.68569 0.660352,9.46923 0.443471,7.76579 0.581332,9.34492 1.759953,20.15928 0.693317,6.36148 0.781473,7.79654 0.499801,8.13594 -0.188098,0.22664 -0.416714,0.39586 -0.508035,0.37604 -0.09132,-0.0198 -0.425286,-0.0865 -0.74214,-0.14817 z m 0.968272,-0.80798 c -0.0026,-0.10914 -0.125127,-1.27 -0.272315,-2.57969 -0.486047,-4.32491 -0.528177,-4.7232 -1.035481,-9.78958 -0.276852,-2.7649 -0.585486,-6.33677 -0.685856,-7.9375 -0.100367,-1.60073 -0.221239,-3.12135 -0.268602,-3.37916 -0.04736,-0.2578 -0.27383,-3.82967 -0.503264,-7.93749 -0.618691,-11.07715 -0.639392,-11.27525 -1.241142,-11.877 -0.422023,-0.42203 -0.596775,-0.45988 -0.912691,-0.19769 -0.319061,0.26479 -0.36341,0.86252 -0.241784,3.25885 0.08192,1.61401 0.209294,4.1252 0.283054,5.5804 0.07376,1.45521 0.187336,3.18162 0.252386,3.83646 0.06505,0.65485 0.177327,2.0836 0.2495,3.175 0.480978,7.27325 1.306308,16.32816 1.868995,20.50521 0.196027,1.45521 0.431821,3.41974 0.523984,4.36562 0.230663,2.36741 0.576228,3.175 1.358558,3.175 0.346147,0 0.627245,-0.0893 0.624658,-0.19843 z m 68.07666,0.27433 c -0.0957,-0.2493 0.0397,-1.64828 0.30088,-3.10885 0.26115,-1.46058 0.69908,-3.90574 0.97318,-5.43371 1.09231,-6.08925 2.80948,-19.64668 3.82035,-30.1625 0.2448,-2.54661 0.58192,-4.92786 0.74915,-5.29167 0.24107,-0.52443 0.52994,-0.67798 1.39445,-0.74125 0.98384,-0.072 1.10735,-0.0123 1.26382,0.61116 0.0954,0.38002 0.10618,1.07077 0.024,1.535 -0.0822,0.46423 -0.38051,3.2253 -0.66298,6.13572 -0.28246,2.91041 -0.69664,6.66088 -0.92039,8.33437 -0.22376,1.67349 -0.51963,3.99521 -0.6575,5.15938 -0.62801,5.30278 -1.62886,12.22361 -2.25749,15.61041 -1.107,5.96405 -1.44683,7.25269 -1.98919,7.54295 -0.77438,0.41444 -1.84443,0.31416 -2.03828,-0.19101 z m 1.99811,-1.06808 c 0.2519,-0.64476 0.6099,-2.49855 2.03109,-10.51719 0.78051,-4.40387 2.83798,-21.25261 3.73528,-30.58855 0.18124,-1.88576 -0.0364,-2.31688 -0.92847,-1.83944 -0.55588,0.2975 -0.55221,0.27734 -1.22992,6.76341 -1.60586,15.36909 -3.3669,28.36971 -4.62336,34.13125 -0.57122,2.61936 -0.56503,2.77812 0.10837,2.77812 0.43405,0 0.70888,-0.22046 0.90701,-0.7276 z m -87.162231,-1.85614 c -0.476264,-0.31801 -0.899224,-1.29878 -0.903566,-2.09522 -0.0021,-0.40975 -0.250589,-1.6975 -0.551899,-2.86166 -0.30131,-1.16417 -0.644396,-2.77151 -0.76241,-3.57188 -0.118015,-0.80036 -0.411607,-2.5863 -0.652423,-3.96875 -0.240819,-1.38245 -0.541753,-3.28745 -0.668743,-4.23333 -0.126989,-0.94589 -0.424106,-3.14854 -0.660257,-4.89479 -0.553733,-4.09463 -1.700487,-14.95749 -1.885352,-17.85938 -0.348318,-5.46769 -0.334838,-5.55625 0.845818,-5.55625 0.908147,0 1.35578,0.9182 1.547857,3.175 0.165571,1.9454 0.516869,5.29907 1.358038,12.96459 0.231544,2.11005 0.523144,4.84849 0.648001,6.08541 0.269619,2.67109 1.147884,8.76997 1.8479,12.83229 0.275839,1.60073 0.753473,4.37989 1.061408,6.17591 0.307938,1.79603 0.495557,3.43314 0.416933,3.63802 -0.151183,0.39398 -1.150826,0.49754 -1.641305,0.17004 z m 1.087358,-1.31886 c -0.281501,-1.48015 -0.458097,-2.47953 -1.437661,-8.13594 -0.993297,-5.73569 -2.444388,-16.85429 -2.942011,-22.54234 -0.891455,-10.18974 -1.401479,-13.05983 -2.182069,-12.27924 -0.377206,0.37721 -0.237217,4.00704 0.35814,9.28653 0.287348,2.54813 0.697704,6.47844 0.911902,8.73401 0.214196,2.25557 0.566838,5.23213 0.783649,6.61458 0.21681,1.38245 0.701471,4.47807 1.077023,6.87917 0.375555,2.40109 0.850135,5.02047 1.054627,5.82083 0.204491,0.80037 0.505314,2.34818 0.668493,3.43958 0.31863,2.13111 0.804042,3.175 1.47638,3.175 0.342747,0 0.385432,-0.18292 0.231527,-0.99218 z m 99.967893,0.84553 c -0.0868,-0.22618 0.16194,-1.80375 0.55275,-3.50573 0.39081,-1.70197 0.87498,-3.80887 1.07595,-4.68199 1.62987,-7.08126 2.98657,-15.42184 4.77721,-29.36875 0.37367,-2.91042 0.79536,-5.73613 0.9371,-6.27935 0.29071,-1.11418 1.041,-1.64774 1.98417,-1.41102 0.88961,0.22328 0.86262,0.87999 -0.43581,10.60079 -0.5909,4.42378 -3.05978,19.51536 -3.72242,22.75416 -0.53824,2.63069 -2.25118,10.16336 -2.51161,11.04479 -0.34392,1.164 -2.29684,1.78655 -2.65734,0.8471 z m 2.00308,-1.64378 c 1.47757,-5.63153 3.71192,-16.92566 4.64457,-23.47727 2.18647,-15.3593 2.61526,-18.93088 2.30946,-19.23667 -0.53306,-0.53307 -1.05627,1.00384 -1.50468,4.42 -0.39587,3.01588 -0.88813,6.55316 -2.39334,17.19792 -0.81061,5.73265 -2.18456,12.82022 -3.55101,18.31811 -0.44248,1.78027 -0.8045,3.48111 -0.8045,3.77962 0,0.91298 0.99923,0.14273 1.2995,-1.00171 z m 26.31812,-1.26602 c -123.809087,58.73006 -61.90454,29.36503 0,0 z M 42.496092,207.75103 c -0.296289,-0.29629 -0.601737,-0.80962 -0.678773,-1.14075 -0.07704,-0.33112 -0.315608,-1.37595 -0.530162,-2.32183 -0.214553,-0.94589 -0.688054,-2.85089 -1.052224,-4.23333 -0.590087,-2.24006 -1.111797,-4.71624 -2.397061,-11.37709 -0.210598,-1.0914 -0.626899,-3.59172 -0.925118,-5.55625 -0.29822,-1.96453 -0.655373,-4.22672 -0.793676,-5.02708 -0.676241,-3.91344 -1.853695,-14.49414 -1.667074,-14.98047 0.244835,-0.63803 1.170199,-0.71926 1.736984,-0.15248 0.453441,0.45345 0.643192,1.47309 1.273027,6.84072 0.652211,5.55833 2.512584,18.21012 3.136043,21.32722 1.28765,6.43785 1.9792,9.61406 2.644614,12.14645 1.060907,4.03751 1.120148,4.82458 0.371168,4.93118 -0.320884,0.0457 -0.819216,-0.15776 -1.117748,-0.45629 z m 0.121427,-4.43896 c -1.429956,-6.16351 -1.68049,-7.3295 -2.263206,-10.533 -1.621091,-8.91202 -2.403811,-13.928 -3.445967,-22.0831 -0.454936,-3.55998 -0.940978,-6.68537 -1.080098,-6.94531 -0.506942,-0.94723 -0.832975,-0.51062 -0.68434,0.91644 0.166452,1.59811 0.651335,5.7148 0.833636,7.0776 0.06813,0.50932 0.195313,1.58089 0.282623,2.38125 0.172712,1.58326 1.103894,7.61705 2.143715,13.89062 0.622014,3.75283 1.921952,10.27649 2.451584,12.30313 1.264679,4.83931 1.704366,6.30514 2.050507,6.83597 0.221732,0.34005 0.465895,0.55553 0.542584,0.47884 0.07669,-0.0767 -0.29728,-2.02178 -0.831038,-4.32244 z m 127.884621,4.58963 c -0.0642,-0.67025 0.0909,-1.68663 0.43021,-2.8195 1.63602,-5.46262 3.19176,-11.81622 4.47572,-18.27867 0.85665,-4.31169 3.33288,-19.01328 3.72765,-22.13144 0.20628,-1.62924 0.98986,-2.78235 1.81113,-2.66523 0.40323,0.0575 0.58993,0.30111 0.6527,0.85159 0.20489,1.79706 -1.72687,13.38747 -4.58996,27.53937 -0.9661,4.7753 -3.4338,14.23904 -4.31549,16.55008 -0.28208,0.73937 -2.1353,1.54578 -2.19196,0.9538 z m 1.59423,-1.85071 c 1.86015,-5.81416 3.31479,-11.77146 5.04968,-20.68047 1.80243,-9.25581 1.87929,-9.71621 3.57362,-21.40523 0.12577,-0.86772 0.0902,-0.98315 -0.2231,-0.72316 -0.22198,0.18422 -0.55867,1.56518 -0.83231,3.41378 -0.62367,4.21314 -1.55805,9.75402 -2.39746,14.21691 -0.38318,2.0373 -0.85739,4.59714 -1.0538,5.68855 -0.59657,3.31504 -1.44896,7.07283 -2.55069,11.24479 -0.57644,2.18281 -1.34253,5.08861 -1.70244,6.45734 -0.35991,1.36872 -0.71567,2.58774 -0.79057,2.70894 -0.0749,0.1212 0.0428,0.15167 0.26163,0.0677 0.2188,-0.084 0.51825,-0.52909 0.66544,-0.98916 z m 14.57464,0.23745 c 0,-0.20969 0.10796,-0.44798 0.23991,-0.52953 0.13195,-0.0815 0.17759,0.09 0.10143,0.38126 -0.16156,0.6178 -0.34134,0.69589 -0.34134,0.14827 z m 1.00056,-2.40976 c 0.24533,-0.66193 0.48058,-1.09995 0.52277,-0.97336 0.0849,0.25456 -0.66817,2.17688 -0.85276,2.17688 -0.0638,0 0.0847,-0.54159 0.32999,-1.20352 z m -156.0981,-1.11159 c -0.955546,-1.1108 -3.403447,-10.1564 -5.602775,-20.70364 -1.91698,-9.1932 -4.124703,-23.56223 -3.764452,-24.50103 0.223454,-0.58231 1.163818,-0.43212 1.616075,0.25811 0.238766,0.3644 0.568717,1.97 0.786234,3.82593 0.811167,6.92122 4.276061,25.11554 6.14953,32.29149 0.66942,2.56408 1.42916,5.43586 1.688314,6.38175 0.625875,2.28437 0.628785,2.91041 0.01355,2.91041 -0.268489,0 -0.667396,-0.20835 -0.886463,-0.46302 z m 0.459025,-1.4552 c -0.696632,-2.21093 -2.266759,-8.05185 -2.898298,-10.78177 -1.813859,-7.84068 -4.549453,-22.8932 -5.431359,-29.88588 -0.155165,-1.2303 -0.394171,-2.34896 -0.531125,-2.48592 -0.15562,-0.15562 -0.206142,0.0879 -0.134712,0.64942 0.06286,0.49413 0.23618,2.08904 0.385154,3.54425 0.148973,1.45521 0.384148,3.00302 0.522607,3.43959 0.138462,0.43656 0.231767,0.97234 0.207346,1.19062 -0.02442,0.21828 0.04687,0.87312 0.158414,1.45521 0.111549,0.58208 0.49376,2.60614 0.849358,4.49791 2.37635,12.64209 3.508518,17.92802 4.731933,22.09271 0.235114,0.80037 0.723484,2.56844 1.08527,3.92906 0.615328,2.31416 1.0516,3.47927 1.3028,3.47927 0.05881,0 -0.05252,-0.50601 -0.247388,-1.12447 z m 148.997405,1.4552 c -0.14016,-0.23958 0.1295,-1.23845 1.91071,-7.0776 1.45495,-4.76963 3.36915,-12.28047 4.24816,-16.66875 0.2915,-1.45521 0.83659,-4.13411 1.21132,-5.95312 0.37473,-1.81901 1.1469,-6.0881 1.71593,-9.48686 0.56903,-3.39876 1.17712,-6.3513 1.35133,-6.56121 0.1742,-0.2099 0.56527,-0.34612 0.86905,-0.30272 0.48896,0.0699 0.54566,0.23878 0.49427,1.4725 -0.10834,2.60097 -2.22552,13.78931 -4.72596,24.97454 -1.94257,8.6897 -5.05816,18.93461 -5.92132,19.47093 -0.60616,0.37664 -0.98512,0.4201 -1.15349,0.13229 z M 15.351398,154.34191 c 0.690021,2.41123 1.562023,10.9279 3.18521,18.32995 0.510577,2.32833 1.155324,5.3049 1.432771,6.61458 0.746379,3.5233 1.742432,7.20914 3.63287,13.44324 0.653494,2.15503 1.122336,4.08979 1.041873,4.29948 -0.180565,0.47054 -0.538054,0.48875 -0.905396,0.0461 l 2.04e-4,-10e-4 c -0.688456,-0.82954 -4.140269,-12.59871 -5.605341,-19.11176 -1.587293,-7.0564 -2.944225,-13.93563 -3.986895,-20.21236 -0.275411,-1.65794 -0.563338,-3.07703 -0.639838,-3.15352 -0.03825,-0.0383 -0.03979,-0.433 0.309096,-0.79904 0.266397,-0.27949 0.912157,-0.27255 1.182619,-0.0214 m 173.460069,43.21587 c -0.09,-0.09 -0.1205,-0.30086 -0.0677,-0.46853 0.0528,-0.16767 0.80901,-2.56705 1.68056,-5.33195 2.05201,-6.50982 2.56845,-8.28718 3.48948,-12.00915 1.82125,-7.35986 3.85033,-17.05462 5.25138,-25.09065 0.55703,-3.19491 0.66659,-3.51374 1.20745,-3.51374 0.52932,0 0.6528,0.58296 0.3979,1.87842 -0.12601,0.64036 -0.53449,2.8907 -0.90774,5.00075 -1.78201,10.07399 -5.10319,23.95809 -7.68288,32.11804 -2.15818,6.82668 -2.72047,8.06476 -3.36841,7.41681 z m 2.71028,-2.71064 c 0,-0.36494 0.84709,-2.72782 0.94339,-2.63152 0.11569,0.11569 -0.68156,2.84898 -0.831,2.84898 -0.0618,0 -0.11239,-0.0979 -0.11239,-0.21746 z m 1.07832,-3.48671 c 0.002,-0.21828 0.17222,-0.75406 0.37796,-1.19063 l 0.37406,-0.79375 -0.15712,0.79375 c -0.19671,0.99371 -0.6009,1.80265 -0.5949,1.19063 z m 0.79466,-2.53559 c 0.0127,-0.30823 0.0754,-0.37092 0.15985,-0.15985 0.0764,0.19099 0.067,0.4192 -0.0209,0.50712 -0.0879,0.0879 -0.15045,-0.0684 -0.13896,-0.34727 z m 0.2518,-0.7717 c 0,-0.14552 0.11541,-0.44318 0.25647,-0.66146 0.14107,-0.21828 0.25648,-0.27781 0.25648,-0.13229 0,0.14552 -0.11541,0.44317 -0.25648,0.66146 -0.14106,0.21828 -0.25647,0.27781 -0.25647,0.13229 z m 0.55448,-1.71979 c -0.005,-0.21829 0.154,-0.75407 0.3539,-1.19063 0.1999,-0.43656 0.36775,-0.61516 0.37301,-0.39687 0.005,0.21828 -0.154,0.75406 -0.3539,1.19062 -0.1999,0.43656 -0.36775,0.61516 -0.37301,0.39688 z m 0.79752,-2.38125 c 0,-0.21829 0.10233,-0.635 0.22739,-0.92605 0.14333,-0.33354 0.22739,-0.38245 0.22739,-0.13229 0,0.21828 -0.10232,0.635 -0.22739,0.92604 -0.14333,0.33355 -0.22739,0.38245 -0.22739,0.1323 z m 0.50697,-1.7198 c -0.008,-0.14552 0.21789,-0.85989 0.50201,-1.5875 0.28412,-0.7276 0.51549,-1.14432 0.51417,-0.92604 -0.003,0.4588 -0.99428,2.91129 -1.01618,2.51354 z m 1.06423,-3.46163 c 0.0127,-0.30822 0.0754,-0.37092 0.15985,-0.15985 0.0764,0.19099 0.067,0.4192 -0.0209,0.50712 -0.0879,0.0879 -0.15045,-0.0684 -0.13896,-0.34727 z"
       id="path102"
       inkscape:connector-curvature="0"
       sodipodi:nodetypes="cccssssccccccsscsccscccssscccsscccccsssscsccccccscscsccccsccccccscccscccscssccccccssccssccccccsccsscccccsssssssccccssccsccsscsccsccccscccccccsccccccssscccccccssscsccscccsscsssccssccccsccccsccscsccsccccccscscccssccccsscsccsscccccscccscccscccccccscccsccsccsccscccscsccsscccscccscssscccssccsscccscscccsscsccscscscscccssssccccccccccscscscscscscscsccccccccc" />
    <ellipse
       style="fill:none;stroke:#999999;stroke-width:1.06500006;stroke-miterlimit:4;stroke-dasharray:none;stroke-opacity:1"
       id="path104"
       cx="106.63958"
       cy="106.36243"
       rx="42.810383"
       ry="12.90353" />
    <ellipse
       style="fill:none;stroke:#49404d;stroke-width:4.06099987;stroke-miterlimit:4;stroke-dasharray:none;stroke-opacity:1"
       id="path106-9"
       cx="106.50903"
       cy="111.97284"
       rx="99.63987"
       ry="31.992882" />
    <ellipse
       style="fill:none;stroke:#49404d;stroke-width:1.94924462;stroke-miterlimit:4;stroke-dasharray:none;stroke-opacity:1"
       id="path106"
       cx="106.21741"
       cy="96.739815"
       rx="100.25786"
       ry="31.264919" />
    <path
       style="fill:none;stroke:#49404d;stroke-width:1.86500001;stroke-linecap:butt;stroke-linejoin:miter;stroke-miterlimit:4;stroke-dasharray:none;stroke-opacity:1"
       d="M 78.141223,143.3264 74.786989,126.55523"
       id="path4729"
       inkscape:connector-curvature="0" />
    <path
       style="fill:none;stroke:#49404d;stroke-width:1.86500001;stroke-linecap:butt;stroke-linejoin:miter;stroke-miterlimit:4;stroke-dasharray:none;stroke-opacity:1"
       d="m 198.76941,109.16291 -4.47232,17.14386"
       id="path4731"
       inkscape:connector-curvature="0" />
    <path
       style="fill:none;stroke:#49404d;stroke-width:1.86500001;stroke-linecap:butt;stroke-linejoin:miter;stroke-miterlimit:4;stroke-dasharray:none;stroke-opacity:1"
       d="M 131.00146,81.335191 133.1755,66.675946"
       id="path4733"
       inkscape:connector-curvature="0" />
    <path
       style="fill:none;stroke:#49404d;stroke-width:1.86500001;stroke-linecap:butt;stroke-linejoin:miter;stroke-miterlimit:4;stroke-dasharray:none;stroke-opacity:1"
       d="M 24.038679,93.634046 17.889246,82.204808"
       id="path4735"
       inkscape:connector-curvature="0" />
    <path
       style="fill:none;stroke:#000000;stroke-width:0.36500001;stroke-linecap:butt;stroke-linejoin:miter;stroke-miterlimit:4;stroke-dasharray:none;stroke-opacity:1"
       d="m 182.37462,216.61815 c 1.14627,-2.88515 3.08013,-7.13392 4.47208,-10.42854"
       id="path4756"
       inkscape:connector-curvature="0"
       sodipodi:nodetypes="cc" />
    <path
       style="fill:none;stroke:#000000;stroke-width:0.465;stroke-linecap:butt;stroke-linejoin:miter;stroke-miterlimit:4;stroke-dasharray:none;stroke-opacity:1"
       d="m 186.63807,206.65903 c 2.45952,-5.81858 2.45952,-5.81858 2.45952,-5.81858 l 1.6994,-4.83303"
       id="path4758"
       inkscape:connector-curvature="0"
       sodipodi:nodetypes="ccc" />
    <path
       style="fill:none;stroke:#000000;stroke-width:0.565;stroke-linecap:butt;stroke-linejoin:miter;stroke-miterlimit:4;stroke-dasharray:none;stroke-opacity:1"
       d="m 190.64452,196.44001 5.57238,-18.23507 5.40982,-25.43699 4.09962,-24.28714 1.615,-17.26809"
       id="path4760"
       inkscape:connector-curvature="0" />
    <path
       style="fill:none;stroke:#000000;stroke-width:0.465;stroke-linecap:butt;stroke-linejoin:miter;stroke-miterlimit:4;stroke-dasharray:none;stroke-opacity:1"
       d="M 11.980208,163.85608 7.8181601,141.16386 5.8855813,123.06789 5.1485811,111.89599"
       id="path4766"
       inkscape:connector-curvature="0"
       sodipodi:nodetypes="cccc" />
    <path
       style="fill:#000000;fill-opacity:1;stroke:#000000;stroke-width:0.26458332px;stroke-linecap:butt;stroke-linejoin:miter;stroke-opacity:1"
       d="m 35.006031,163.56421 0.04392,-0.65884 0.96629,0.30746 3.645546,24.77214 2.955729,15.3271 1.216885,3.82301 -0.263533,0.70275 -1.07478,-0.0868 -0.462499,-1.27479 -3.557702,-16.42692 -3.074558,-20.336 z"
       id="path4770"
       inkscape:connector-curvature="0" />
    <path
       style="fill:#000000;fill-opacity:1;stroke:#000000;stroke-width:0.26458332px;stroke-linecap:butt;stroke-linejoin:miter;stroke-opacity:1"
       d="m 56.088711,211.43946 0.248467,0.84858 1.157044,-0.27759 -0.06969,-1.04127 -1.599358,-11.25696 -2.283958,-16.82223 -1.141978,-12.47392 -0.527066,-2.45964 -0.746678,-0.57099 -0.614913,0.35138 v 1.05413 l 0.131768,4.61184 0.219612,3.03063 1.405511,11.99078 1.537277,11.20017 z"
       id="path4772"
       inkscape:connector-curvature="0" />
    <path
       style="fill:#000000;fill-opacity:1;stroke:#000000;stroke-width:0.26458332px;stroke-linecap:butt;stroke-linejoin:miter;stroke-opacity:1"
       d="m 31.964415,202.43539 -3.447896,-11.73822 -1.658065,-7.18128 -1.548258,-8.4221 -1.734929,-9.20171 -0.878445,-7.52168 0.07686,-0.64785 0.58197,0.0439 c 0,0 0.340397,1.04315 0.351378,1.08707 0.01098,0.0439 1.152959,7.59855 1.152959,7.59855 l 1.778852,9.80565 1.745909,9.72877 2.218073,8.85034 1.877677,6.73108 0.142745,1.10904 -0.307454,0.13176 z"
       id="path4774"
       inkscape:connector-curvature="0" />
    <path
       style="fill:#000000;fill-opacity:1;stroke:#000000;stroke-width:0.26458332px;stroke-linecap:butt;stroke-linejoin:miter;stroke-opacity:1"
       d="m 69.693522,171.2007 0.559041,0.86962 0.605626,9.98506 1.481754,19.89687 1.36159,12.91314 -0.307456,0.77962 -1.098055,-0.37334 -0.680797,-0.47216 -0.340397,-2.00944 -2.316898,-22.08191 -0.96629,-15.89986 0.08784,-3.38201 0.38726,-0.44299 0.621155,0.0155 z"
       id="path4776"
       inkscape:connector-curvature="0" />
    <path
       style="fill:#000000;fill-opacity:1;stroke:#000000;stroke-width:0.26458332px;stroke-linecap:butt;stroke-linejoin:miter;stroke-opacity:1"
       d="m 88.266039,173.2971 -0.372692,0.31057 -0.09317,5.18665 0.217405,19.3179 0.815168,16.40179 0.417261,2.30592 0.812562,0.65884 0.790602,-0.0659 0.219612,-0.52706 0.02196,-5.92951 -0.307456,-8.23542 -0.373341,-14.23081 -0.351377,-14.29669 -0.461182,-1.0761 -0.922369,-0.52706 -0.549026,0.43922 z"
       id="path4778"
       inkscape:connector-curvature="0" />
    <path
       style="fill:#000000;fill-opacity:1;stroke:#000000;stroke-width:0.26458332px;stroke-linecap:butt;stroke-linejoin:miter;stroke-opacity:1"
       d="m 110.24484,175.8844 -0.21961,9.75074 -0.21961,9.81662 -0.35138,13.02294 -0.24157,7.4009 -0.21961,1.84474 -0.72472,0.46118 -0.70275,-0.0439 -0.65884,-0.46118 -0.35138,-1.0761 0.41727,-10.34369 0.26353,-12.0347 0.41726,-14.03315 0.24157,-5.53421 0.2855,-0.7906 0.7906,-0.19765 0.63687,-0.011 0.43922,0.20863 0.0659,0.64785 z"
       id="path4780"
       inkscape:connector-curvature="0" />
    <path
       style="fill:#000000;fill-opacity:1;stroke:#000000;stroke-width:0.26458332px;stroke-linecap:butt;stroke-linejoin:miter;stroke-opacity:1"
       d="m 128.79101,173.12827 0.99923,-0.34039 0.90041,0.46118 0.14275,1.73493 -0.16471,1.70199 -1.03377,15.02835 -1.67711,18.13771 -0.77645,6.00966 -0.3261,1.19572 -0.88515,0.264 -0.77644,-0.10871 -0.45034,-0.59009 0.0466,-1.55289 1.18019,-10.26457 1.30443,-16.75565 1.05596,-13.10635 z"
       id="path4782"
       inkscape:connector-curvature="0" />
    <path
       style="fill:#000000;fill-opacity:1;stroke:#000000;stroke-width:0.26458332px;stroke-linecap:butt;stroke-linejoin:miter;stroke-opacity:1"
       d="m 149.68702,171.90943 -0.61491,7.15933 -0.72472,6.08323 -1.25178,9.99231 -1.91062,12.8253 -0.70275,3.97496 -0.90041,2.83299 -0.57099,0.5051 -0.81256,-0.0439 -0.41726,-0.50511 0.1098,-1.691 0.74668,-3.46986 3.14044,-22.51015 1.51532,-13.19864 0.50511,-2.74514 0.52706,-0.37334 0.72472,-0.0878 0.54903,0.24157 0.17569,0.72472 z"
       id="path4784"
       inkscape:connector-curvature="0" />
    <path
       style="fill:#000000;fill-opacity:1;stroke:#000000;stroke-width:0.26458332px;stroke-linecap:butt;stroke-linejoin:miter;stroke-opacity:1"
       d="m 166.39173,166.96132 0.49693,0.45034 c 0,0 0.0155,2.11193 0,2.23615 -0.0155,0.12424 -0.5901,5.6991 -0.5901,5.6991 l -4.75183,27.53267 -1.84793,7.65573 -0.77645,1.22677 -0.83856,0.17082 c 0,0 -0.43481,-0.31057 -0.43481,-0.38822 0,-0.0776 0.0155,-1.2889 0.0155,-1.2889 l 1.8324,-6.92587 2.7952,-16.04131 1.8324,-12.85789 0.94726,-6.33578 0.52798,-0.9162 0.57457,-0.21741 z"
       id="path4786"
       inkscape:connector-curvature="0" />
    <path
       style="fill:#000000;fill-opacity:1;stroke:#000000;stroke-width:0.26458332px;stroke-linecap:butt;stroke-linejoin:miter;stroke-opacity:1"
       d="m 181.15968,162.50454 -0.0311,1.78582 -0.49692,4.05303 -2.68649,15.42016 -2.28275,10.46645 -2.3138,9.39496 -0.97831,3.23 -1.08703,0.66774 c 0,0 -0.49692,-0.23293 -0.51245,-0.29504 -0.0155,-0.0621 0.0932,-0.94726 0.0932,-0.94726 l 1.92557,-6.6153 3.46294,-14.93876 2.25168,-12.9666 1.25784,-7.8576 0.49693,-1.19572 0.68327,-0.40376 0.20187,0.12424 z"
       id="path4788"
       inkscape:connector-curvature="0" />
  </g>
  <g
     inkscape:groupmode="layer"
     id="layer4"
     inkscape:label="stäbemitte"
     style="display:inline" />
</svg>
