M48
; DRILL file {KiCad 5.1.6-c6e7f7d~87~ubuntu20.04.1} date Thu Jul 23 13:09:24 2020
; FORMAT={-:-/ absolute / inch / decimal}
; #@! TF.CreationDate,2020-07-23T13:09:24+02:00
; #@! TF.GenerationSoftware,Kicad,Pcbnew,5.1.6-c6e7f7d~87~ubuntu20.04.1
; #@! TF.FileFunction,Plated,1,2,PTH
FMAT,2
INCH
T1C0.0157
T2C0.0276
T3C0.0394
T4C0.0469
T5C0.0512
%
G90
G05
T1
X1.63Y-3.9318
X1.68Y-3.95
X1.71Y-4.25
X1.73Y-3.51
X1.76Y-3.44
X1.76Y-4.45
X1.83Y-4.21
X1.83Y-4.78
X1.89Y-4.66
X1.93Y-3.53
X1.96Y-3.21
X1.96Y-3.46
X2.06Y-3.84
X2.07Y-3.52
X2.09Y-3.97
X2.12Y-3.88
X2.18Y-3.28
X2.18Y-3.58
X2.19Y-4.4
X2.39Y-4.19
X2.44Y-4.4
X2.56Y-3.46
X2.58Y-3.27
X2.61Y-3.36
X2.92Y-4.22
X2.94Y-3.47
X3.19Y-4.57
X3.2Y-4.2
X3.25Y-4.69
X3.71Y-3.74
X3.87Y-3.17
X3.9Y-4.46
X3.92Y-3.47
T2
X3.25Y-3.57
X3.55Y-3.57
T3
X3.62Y-4.63
X3.62Y-4.73
X3.62Y-4.83
X3.99Y-4.0
X3.99Y-4.1
X3.99Y-4.2
X3.99Y-4.3
X3.99Y-3.61
X3.99Y-3.71
X1.63Y-3.2
X1.73Y-3.2
X1.83Y-3.2
X3.99Y-3.2
X3.99Y-3.3
X3.08Y-3.32
X3.18Y-3.32
X3.28Y-3.32
T4
X2.14Y-4.59
X2.24Y-4.59
X2.34Y-4.59
X2.44Y-4.59
T5
X2.85Y-4.69
X3.05Y-4.69
T0
M30
