G04 #@! TF.GenerationSoftware,KiCad,Pcbnew,5.1.6-c6e7f7d~87~ubuntu20.04.1*
G04 #@! TF.CreationDate,2020-07-23T13:09:22+02:00*
G04 #@! TF.ProjectId,lotusble,6c6f7475-7362-46c6-952e-6b696361645f,rev?*
G04 #@! TF.SameCoordinates,Original*
G04 #@! TF.FileFunction,Legend,Top*
G04 #@! TF.FilePolarity,Positive*
%FSLAX46Y46*%
G04 Gerber Fmt 4.6, Leading zero omitted, Abs format (unit mm)*
G04 Created by KiCad (PCBNEW 5.1.6-c6e7f7d~87~ubuntu20.04.1) date 2020-07-23 13:09:22*
%MOMM*%
%LPD*%
G01*
G04 APERTURE LIST*
%ADD10C,0.120000*%
%ADD11C,0.150000*%
%ADD12C,0.500000*%
G04 APERTURE END LIST*
D10*
X69550000Y-124726000D02*
X70150000Y-124726000D01*
X69550000Y-123886000D02*
X69550000Y-124726000D01*
X78720000Y-114076000D02*
X78720000Y-114576000D01*
X76220000Y-114076000D02*
X76220000Y-114576000D01*
X76220000Y-114576000D02*
X78720000Y-114576000D01*
X76220000Y-114076000D02*
X78720000Y-114076000D01*
X76290000Y-120102000D02*
X76196000Y-120195000D01*
X78540000Y-117851000D02*
X78481000Y-117910000D01*
X76460000Y-120342000D02*
X76401000Y-120400000D01*
X78745000Y-118057000D02*
X78651000Y-118150000D01*
X73640000Y-114076000D02*
X73640000Y-114576000D01*
X71140000Y-114076000D02*
X71140000Y-114576000D01*
X71140000Y-114576000D02*
X73640000Y-114576000D01*
X71140000Y-114076000D02*
X73640000Y-114076000D01*
X80070000Y-113766000D02*
X80070000Y-124486000D01*
X69790000Y-113766000D02*
X69790000Y-124486000D01*
X69790000Y-124486000D02*
X80070000Y-124486000D01*
X69790000Y-113766000D02*
X80070000Y-113766000D01*
X69790000Y-115826000D02*
X80070000Y-115826000D01*
X69790000Y-121626000D02*
X80070000Y-121626000D01*
X69790000Y-123826000D02*
X80070000Y-123826000D01*
X79150000Y-119126000D02*
G75*
G03*
X79150000Y-119126000I-1680000J0D01*
G01*
X73178712Y-120609352D02*
G75*
G02*
X72390000Y-120806000I-788712J1483352D01*
G01*
X73873953Y-118336912D02*
G75*
G02*
X73874000Y-119915000I-1483953J-789088D01*
G01*
X71600912Y-117642047D02*
G75*
G02*
X73179000Y-117642000I789088J-1483953D01*
G01*
X70906047Y-119915088D02*
G75*
G02*
X70906000Y-118337000I1483953J789088D01*
G01*
X72419383Y-120806450D02*
G75*
G02*
X71601000Y-120610000I-29383J1680450D01*
G01*
D11*
X32462000Y-85488000D02*
X32462000Y-103488000D01*
X57962000Y-85488000D02*
X57962000Y-103488000D01*
X32462000Y-85488000D02*
X57962000Y-85488000D01*
X32462000Y-103488000D02*
X57962000Y-103488000D01*
X38462000Y-85488000D02*
X38462000Y-103488000D01*
D12*
X38891981Y-104394000D02*
G75*
G03*
X38891981Y-104394000I-283981J0D01*
G01*
D10*
X83092500Y-109230500D02*
X83717500Y-109230500D01*
X83405000Y-109543000D02*
X83405000Y-108918000D01*
X86785563Y-108678000D02*
X87850000Y-107613563D01*
X83394437Y-108678000D02*
X82330000Y-107613563D01*
X83394437Y-108678000D02*
X84030000Y-108678000D01*
X86785563Y-108678000D02*
X86150000Y-108678000D01*
X87850000Y-107613563D02*
X87850000Y-103158000D01*
X82330000Y-107613563D02*
X82330000Y-103158000D01*
X82330000Y-103158000D02*
X84030000Y-103158000D01*
X87850000Y-103158000D02*
X86150000Y-103158000D01*
X65322750Y-109707750D02*
X66110250Y-109707750D01*
X65716500Y-110101500D02*
X65716500Y-109314000D01*
X69909563Y-109074000D02*
X70974000Y-108009563D01*
X65218437Y-109074000D02*
X64154000Y-108009563D01*
X65218437Y-109074000D02*
X66504000Y-109074000D01*
X69909563Y-109074000D02*
X68624000Y-109074000D01*
X70974000Y-108009563D02*
X70974000Y-102254000D01*
X64154000Y-108009563D02*
X64154000Y-102254000D01*
X64154000Y-102254000D02*
X66504000Y-102254000D01*
X70974000Y-102254000D02*
X68624000Y-102254000D01*
X47278000Y-112742000D02*
X48978000Y-112742000D01*
X52798000Y-112742000D02*
X51098000Y-112742000D01*
X52798000Y-108286437D02*
X52798000Y-112742000D01*
X47278000Y-108286437D02*
X47278000Y-112742000D01*
X48342437Y-107222000D02*
X48978000Y-107222000D01*
X51733563Y-107222000D02*
X51098000Y-107222000D01*
X51733563Y-107222000D02*
X52798000Y-108286437D01*
X48342437Y-107222000D02*
X47278000Y-108286437D01*
X51723000Y-106357000D02*
X51723000Y-106982000D01*
X52035500Y-106669500D02*
X51410500Y-106669500D01*
X41307936Y-111400000D02*
X42512064Y-111400000D01*
X41307936Y-109580000D02*
X42512064Y-109580000D01*
X75824000Y-107354000D02*
X78974000Y-107354000D01*
X75824000Y-109054000D02*
X78974000Y-109054000D01*
X75824000Y-107354000D02*
X75824000Y-109054000D01*
X48673936Y-124354000D02*
X49878064Y-124354000D01*
X48673936Y-122534000D02*
X49878064Y-122534000D01*
X69956000Y-98392064D02*
X69956000Y-97187936D01*
X71776000Y-98392064D02*
X71776000Y-97187936D01*
X66908000Y-97187936D02*
X66908000Y-98392064D01*
X68728000Y-97187936D02*
X68728000Y-98392064D01*
X58370000Y-83226000D02*
X58470000Y-83226000D01*
X56870000Y-78826000D02*
X56870000Y-83226000D01*
X59970000Y-83226000D02*
X59970000Y-78826000D01*
X58370000Y-78826000D02*
X58470000Y-78826000D01*
X40218000Y-115874000D02*
X40218000Y-115774000D01*
X44618000Y-114274000D02*
X40218000Y-114274000D01*
X40218000Y-117374000D02*
X44618000Y-117374000D01*
X44618000Y-115874000D02*
X44618000Y-115774000D01*
X40218000Y-122732000D02*
X40218000Y-122632000D01*
X44618000Y-121132000D02*
X40218000Y-121132000D01*
X40218000Y-124232000D02*
X44618000Y-124232000D01*
X44618000Y-122732000D02*
X44618000Y-122632000D01*
X73044000Y-105192000D02*
X73044000Y-99182000D01*
X79864000Y-102942000D02*
X79864000Y-99182000D01*
X73044000Y-99182000D02*
X74304000Y-99182000D01*
X79864000Y-99182000D02*
X78604000Y-99182000D01*
X94382000Y-89059936D02*
X94382000Y-90264064D01*
X92562000Y-89059936D02*
X92562000Y-90264064D01*
X95598064Y-80412000D02*
X94393936Y-80412000D01*
X95598064Y-78592000D02*
X94393936Y-78592000D01*
X92562000Y-82963936D02*
X92562000Y-84168064D01*
X94382000Y-82963936D02*
X94382000Y-84168064D01*
X62776000Y-114156000D02*
X62776000Y-113556000D01*
X61176000Y-114156000D02*
X62776000Y-114156000D01*
X61176000Y-113556000D02*
X61176000Y-114156000D01*
X60236000Y-114156000D02*
X60236000Y-113556000D01*
X58636000Y-114156000D02*
X60236000Y-114156000D01*
X58636000Y-113556000D02*
X58636000Y-114156000D01*
X57696000Y-114156000D02*
X57696000Y-113556000D01*
X56096000Y-114156000D02*
X57696000Y-114156000D01*
X56096000Y-113556000D02*
X56096000Y-114156000D01*
X55156000Y-114156000D02*
X55156000Y-113556000D01*
X53556000Y-114156000D02*
X55156000Y-114156000D01*
X53556000Y-113556000D02*
X53556000Y-114156000D01*
X61726000Y-119576000D02*
X61726000Y-118576000D01*
X54606000Y-119576000D02*
X54606000Y-118576000D01*
X61726000Y-118046000D02*
X61976000Y-118576000D01*
X54606000Y-118046000D02*
X61726000Y-118046000D01*
X54356000Y-118576000D02*
X54606000Y-118046000D01*
X61976000Y-118576000D02*
X61976000Y-119576000D01*
X54356000Y-118576000D02*
X61976000Y-118576000D01*
X54356000Y-119576000D02*
X54356000Y-118576000D01*
X52686000Y-114586000D02*
X52686000Y-118586000D01*
X63356000Y-113556000D02*
X52976000Y-113556000D01*
X63356000Y-119576000D02*
X63356000Y-113556000D01*
X52976000Y-119576000D02*
X63356000Y-119576000D01*
X52976000Y-113556000D02*
X52976000Y-119576000D01*
X100076000Y-100330000D02*
X101346000Y-100330000D01*
X100076000Y-101600000D02*
X100076000Y-100330000D01*
X102388929Y-109600000D02*
X102786000Y-109600000D01*
X102388929Y-108840000D02*
X102786000Y-108840000D01*
X111446000Y-109600000D02*
X105446000Y-109600000D01*
X111446000Y-108840000D02*
X111446000Y-109600000D01*
X105446000Y-108840000D02*
X111446000Y-108840000D01*
X102786000Y-107950000D02*
X105446000Y-107950000D01*
X102388929Y-107060000D02*
X102786000Y-107060000D01*
X102388929Y-106300000D02*
X102786000Y-106300000D01*
X111446000Y-107060000D02*
X105446000Y-107060000D01*
X111446000Y-106300000D02*
X111446000Y-107060000D01*
X105446000Y-106300000D02*
X111446000Y-106300000D01*
X102786000Y-105410000D02*
X105446000Y-105410000D01*
X102388929Y-104520000D02*
X102786000Y-104520000D01*
X102388929Y-103760000D02*
X102786000Y-103760000D01*
X111446000Y-104520000D02*
X105446000Y-104520000D01*
X111446000Y-103760000D02*
X111446000Y-104520000D01*
X105446000Y-103760000D02*
X111446000Y-103760000D01*
X102786000Y-102870000D02*
X105446000Y-102870000D01*
X102456000Y-101980000D02*
X102786000Y-101980000D01*
X102456000Y-101220000D02*
X102786000Y-101220000D01*
X105446000Y-101880000D02*
X111446000Y-101880000D01*
X105446000Y-101760000D02*
X111446000Y-101760000D01*
X105446000Y-101640000D02*
X111446000Y-101640000D01*
X105446000Y-101520000D02*
X111446000Y-101520000D01*
X105446000Y-101400000D02*
X111446000Y-101400000D01*
X105446000Y-101280000D02*
X111446000Y-101280000D01*
X111446000Y-101980000D02*
X105446000Y-101980000D01*
X111446000Y-101220000D02*
X111446000Y-101980000D01*
X105446000Y-101220000D02*
X111446000Y-101220000D01*
X105446000Y-100270000D02*
X102786000Y-100270000D01*
X105446000Y-110550000D02*
X105446000Y-100270000D01*
X102786000Y-110550000D02*
X105446000Y-110550000D01*
X102786000Y-100270000D02*
X102786000Y-110550000D01*
X100076000Y-90424000D02*
X101346000Y-90424000D01*
X100076000Y-91694000D02*
X100076000Y-90424000D01*
X102388929Y-94614000D02*
X102786000Y-94614000D01*
X102388929Y-93854000D02*
X102786000Y-93854000D01*
X111446000Y-94614000D02*
X105446000Y-94614000D01*
X111446000Y-93854000D02*
X111446000Y-94614000D01*
X105446000Y-93854000D02*
X111446000Y-93854000D01*
X102786000Y-92964000D02*
X105446000Y-92964000D01*
X102456000Y-92074000D02*
X102786000Y-92074000D01*
X102456000Y-91314000D02*
X102786000Y-91314000D01*
X105446000Y-91974000D02*
X111446000Y-91974000D01*
X105446000Y-91854000D02*
X111446000Y-91854000D01*
X105446000Y-91734000D02*
X111446000Y-91734000D01*
X105446000Y-91614000D02*
X111446000Y-91614000D01*
X105446000Y-91494000D02*
X111446000Y-91494000D01*
X105446000Y-91374000D02*
X111446000Y-91374000D01*
X111446000Y-92074000D02*
X105446000Y-92074000D01*
X111446000Y-91314000D02*
X111446000Y-92074000D01*
X105446000Y-91314000D02*
X111446000Y-91314000D01*
X105446000Y-90364000D02*
X102786000Y-90364000D01*
X105446000Y-95564000D02*
X105446000Y-90364000D01*
X102786000Y-95564000D02*
X105446000Y-95564000D01*
X102786000Y-90364000D02*
X102786000Y-95564000D01*
X102786000Y-79950000D02*
X102786000Y-85150000D01*
X102786000Y-85150000D02*
X105446000Y-85150000D01*
X105446000Y-85150000D02*
X105446000Y-79950000D01*
X105446000Y-79950000D02*
X102786000Y-79950000D01*
X105446000Y-80900000D02*
X111446000Y-80900000D01*
X111446000Y-80900000D02*
X111446000Y-81660000D01*
X111446000Y-81660000D02*
X105446000Y-81660000D01*
X105446000Y-80960000D02*
X111446000Y-80960000D01*
X105446000Y-81080000D02*
X111446000Y-81080000D01*
X105446000Y-81200000D02*
X111446000Y-81200000D01*
X105446000Y-81320000D02*
X111446000Y-81320000D01*
X105446000Y-81440000D02*
X111446000Y-81440000D01*
X105446000Y-81560000D02*
X111446000Y-81560000D01*
X102456000Y-80900000D02*
X102786000Y-80900000D01*
X102456000Y-81660000D02*
X102786000Y-81660000D01*
X102786000Y-82550000D02*
X105446000Y-82550000D01*
X105446000Y-83440000D02*
X111446000Y-83440000D01*
X111446000Y-83440000D02*
X111446000Y-84200000D01*
X111446000Y-84200000D02*
X105446000Y-84200000D01*
X102388929Y-83440000D02*
X102786000Y-83440000D01*
X102388929Y-84200000D02*
X102786000Y-84200000D01*
X100076000Y-81280000D02*
X100076000Y-80010000D01*
X100076000Y-80010000D02*
X101346000Y-80010000D01*
X40072000Y-79840000D02*
X47812000Y-79840000D01*
X47812000Y-79840000D02*
X47812000Y-77180000D01*
X47812000Y-77180000D02*
X40072000Y-77180000D01*
X40072000Y-77180000D02*
X40072000Y-79840000D01*
X41022000Y-77180000D02*
X41022000Y-71180000D01*
X41022000Y-71180000D02*
X41782000Y-71180000D01*
X41782000Y-71180000D02*
X41782000Y-77180000D01*
X41082000Y-77180000D02*
X41082000Y-71180000D01*
X41202000Y-77180000D02*
X41202000Y-71180000D01*
X41322000Y-77180000D02*
X41322000Y-71180000D01*
X41442000Y-77180000D02*
X41442000Y-71180000D01*
X41562000Y-77180000D02*
X41562000Y-71180000D01*
X41682000Y-77180000D02*
X41682000Y-71180000D01*
X41022000Y-80170000D02*
X41022000Y-79840000D01*
X41782000Y-80170000D02*
X41782000Y-79840000D01*
X42672000Y-79840000D02*
X42672000Y-77180000D01*
X43562000Y-77180000D02*
X43562000Y-71180000D01*
X43562000Y-71180000D02*
X44322000Y-71180000D01*
X44322000Y-71180000D02*
X44322000Y-77180000D01*
X43562000Y-80237071D02*
X43562000Y-79840000D01*
X44322000Y-80237071D02*
X44322000Y-79840000D01*
X45212000Y-79840000D02*
X45212000Y-77180000D01*
X46102000Y-77180000D02*
X46102000Y-71180000D01*
X46102000Y-71180000D02*
X46862000Y-71180000D01*
X46862000Y-71180000D02*
X46862000Y-77180000D01*
X46102000Y-80237071D02*
X46102000Y-79840000D01*
X46862000Y-80237071D02*
X46862000Y-79840000D01*
X41402000Y-82550000D02*
X40132000Y-82550000D01*
X40132000Y-82550000D02*
X40132000Y-81280000D01*
X76902000Y-82888000D02*
X84642000Y-82888000D01*
X84642000Y-82888000D02*
X84642000Y-80228000D01*
X84642000Y-80228000D02*
X76902000Y-80228000D01*
X76902000Y-80228000D02*
X76902000Y-82888000D01*
X77852000Y-80228000D02*
X77852000Y-74228000D01*
X77852000Y-74228000D02*
X78612000Y-74228000D01*
X78612000Y-74228000D02*
X78612000Y-80228000D01*
X77912000Y-80228000D02*
X77912000Y-74228000D01*
X78032000Y-80228000D02*
X78032000Y-74228000D01*
X78152000Y-80228000D02*
X78152000Y-74228000D01*
X78272000Y-80228000D02*
X78272000Y-74228000D01*
X78392000Y-80228000D02*
X78392000Y-74228000D01*
X78512000Y-80228000D02*
X78512000Y-74228000D01*
X77852000Y-83218000D02*
X77852000Y-82888000D01*
X78612000Y-83218000D02*
X78612000Y-82888000D01*
X79502000Y-82888000D02*
X79502000Y-80228000D01*
X80392000Y-80228000D02*
X80392000Y-74228000D01*
X80392000Y-74228000D02*
X81152000Y-74228000D01*
X81152000Y-74228000D02*
X81152000Y-80228000D01*
X80392000Y-83285071D02*
X80392000Y-82888000D01*
X81152000Y-83285071D02*
X81152000Y-82888000D01*
X82042000Y-82888000D02*
X82042000Y-80228000D01*
X82932000Y-80228000D02*
X82932000Y-74228000D01*
X82932000Y-74228000D02*
X83692000Y-74228000D01*
X83692000Y-74228000D02*
X83692000Y-80228000D01*
X82932000Y-83285071D02*
X82932000Y-82888000D01*
X83692000Y-83285071D02*
X83692000Y-82888000D01*
X78232000Y-85598000D02*
X76962000Y-85598000D01*
X76962000Y-85598000D02*
X76962000Y-84328000D01*
X90678000Y-116332000D02*
X91948000Y-116332000D01*
X90678000Y-117602000D02*
X90678000Y-116332000D01*
X92990929Y-123062000D02*
X93388000Y-123062000D01*
X92990929Y-122302000D02*
X93388000Y-122302000D01*
X102048000Y-123062000D02*
X96048000Y-123062000D01*
X102048000Y-122302000D02*
X102048000Y-123062000D01*
X96048000Y-122302000D02*
X102048000Y-122302000D01*
X93388000Y-121412000D02*
X96048000Y-121412000D01*
X92990929Y-120522000D02*
X93388000Y-120522000D01*
X92990929Y-119762000D02*
X93388000Y-119762000D01*
X102048000Y-120522000D02*
X96048000Y-120522000D01*
X102048000Y-119762000D02*
X102048000Y-120522000D01*
X96048000Y-119762000D02*
X102048000Y-119762000D01*
X93388000Y-118872000D02*
X96048000Y-118872000D01*
X93058000Y-117982000D02*
X93388000Y-117982000D01*
X93058000Y-117222000D02*
X93388000Y-117222000D01*
X96048000Y-117882000D02*
X102048000Y-117882000D01*
X96048000Y-117762000D02*
X102048000Y-117762000D01*
X96048000Y-117642000D02*
X102048000Y-117642000D01*
X96048000Y-117522000D02*
X102048000Y-117522000D01*
X96048000Y-117402000D02*
X102048000Y-117402000D01*
X96048000Y-117282000D02*
X102048000Y-117282000D01*
X102048000Y-117982000D02*
X96048000Y-117982000D01*
X102048000Y-117222000D02*
X102048000Y-117982000D01*
X96048000Y-117222000D02*
X102048000Y-117222000D01*
X96048000Y-116272000D02*
X93388000Y-116272000D01*
X96048000Y-124012000D02*
X96048000Y-116272000D01*
X93388000Y-124012000D02*
X96048000Y-124012000D01*
X93388000Y-116272000D02*
X93388000Y-124012000D01*
X63992000Y-98360000D02*
X63992000Y-99760000D01*
X63292000Y-100460000D02*
X62692000Y-100460000D01*
X61992000Y-99760000D02*
X61992000Y-98360000D01*
X62692000Y-97660000D02*
X63292000Y-97660000D01*
X63992000Y-99760000D02*
G75*
G02*
X63292000Y-100460000I-700000J0D01*
G01*
X62692000Y-100460000D02*
G75*
G02*
X61992000Y-99760000I0J700000D01*
G01*
X61992000Y-98360000D02*
G75*
G02*
X62692000Y-97660000I700000J0D01*
G01*
X63292000Y-97660000D02*
G75*
G02*
X63992000Y-98360000I0J-700000D01*
G01*
D11*
X74596666Y-112218380D02*
X74596666Y-112932666D01*
X74549047Y-113075523D01*
X74453809Y-113170761D01*
X74310952Y-113218380D01*
X74215714Y-113218380D01*
X75596666Y-113218380D02*
X75025238Y-113218380D01*
X75310952Y-113218380D02*
X75310952Y-112218380D01*
X75215714Y-112361238D01*
X75120476Y-112456476D01*
X75025238Y-112504095D01*
X35647380Y-83692904D02*
X36456904Y-83692904D01*
X36552142Y-83645285D01*
X36599761Y-83597666D01*
X36647380Y-83502428D01*
X36647380Y-83311952D01*
X36599761Y-83216714D01*
X36552142Y-83169095D01*
X36456904Y-83121476D01*
X35647380Y-83121476D01*
X35742619Y-82692904D02*
X35695000Y-82645285D01*
X35647380Y-82550047D01*
X35647380Y-82311952D01*
X35695000Y-82216714D01*
X35742619Y-82169095D01*
X35837857Y-82121476D01*
X35933095Y-82121476D01*
X36075952Y-82169095D01*
X36647380Y-82740523D01*
X36647380Y-82121476D01*
X39529571Y-87558571D02*
X39862904Y-87558571D01*
X40005761Y-88082380D02*
X39529571Y-88082380D01*
X39529571Y-87082380D01*
X40005761Y-87082380D01*
X40386714Y-88034761D02*
X40481952Y-88082380D01*
X40672428Y-88082380D01*
X40767666Y-88034761D01*
X40815285Y-87939523D01*
X40815285Y-87891904D01*
X40767666Y-87796666D01*
X40672428Y-87749047D01*
X40529571Y-87749047D01*
X40434333Y-87701428D01*
X40386714Y-87606190D01*
X40386714Y-87558571D01*
X40434333Y-87463333D01*
X40529571Y-87415714D01*
X40672428Y-87415714D01*
X40767666Y-87463333D01*
X41243857Y-87415714D02*
X41243857Y-88415714D01*
X41243857Y-87463333D02*
X41339095Y-87415714D01*
X41529571Y-87415714D01*
X41624809Y-87463333D01*
X41672428Y-87510952D01*
X41720047Y-87606190D01*
X41720047Y-87891904D01*
X41672428Y-87987142D01*
X41624809Y-88034761D01*
X41529571Y-88082380D01*
X41339095Y-88082380D01*
X41243857Y-88034761D01*
X42148619Y-88082380D02*
X42148619Y-87415714D01*
X42148619Y-87606190D02*
X42196238Y-87510952D01*
X42243857Y-87463333D01*
X42339095Y-87415714D01*
X42434333Y-87415714D01*
X43148619Y-88034761D02*
X43053380Y-88082380D01*
X42862904Y-88082380D01*
X42767666Y-88034761D01*
X42720047Y-87939523D01*
X42720047Y-87558571D01*
X42767666Y-87463333D01*
X42862904Y-87415714D01*
X43053380Y-87415714D01*
X43148619Y-87463333D01*
X43196238Y-87558571D01*
X43196238Y-87653809D01*
X42720047Y-87749047D01*
X43577190Y-88034761D02*
X43672428Y-88082380D01*
X43862904Y-88082380D01*
X43958142Y-88034761D01*
X44005761Y-87939523D01*
X44005761Y-87891904D01*
X43958142Y-87796666D01*
X43862904Y-87749047D01*
X43720047Y-87749047D01*
X43624809Y-87701428D01*
X43577190Y-87606190D01*
X43577190Y-87558571D01*
X43624809Y-87463333D01*
X43720047Y-87415714D01*
X43862904Y-87415714D01*
X43958142Y-87463333D01*
X44386714Y-88034761D02*
X44481952Y-88082380D01*
X44672428Y-88082380D01*
X44767666Y-88034761D01*
X44815285Y-87939523D01*
X44815285Y-87891904D01*
X44767666Y-87796666D01*
X44672428Y-87749047D01*
X44529571Y-87749047D01*
X44434333Y-87701428D01*
X44386714Y-87606190D01*
X44386714Y-87558571D01*
X44434333Y-87463333D01*
X44529571Y-87415714D01*
X44672428Y-87415714D01*
X44767666Y-87463333D01*
X45243857Y-88082380D02*
X45243857Y-87415714D01*
X45243857Y-87082380D02*
X45196238Y-87130000D01*
X45243857Y-87177619D01*
X45291476Y-87130000D01*
X45243857Y-87082380D01*
X45243857Y-87177619D01*
X45577190Y-87415714D02*
X45958142Y-87415714D01*
X45720047Y-88082380D02*
X45720047Y-87225238D01*
X45767666Y-87130000D01*
X45862904Y-87082380D01*
X45958142Y-87082380D01*
X47005761Y-88034761D02*
X47148619Y-88082380D01*
X47386714Y-88082380D01*
X47481952Y-88034761D01*
X47529571Y-87987142D01*
X47577190Y-87891904D01*
X47577190Y-87796666D01*
X47529571Y-87701428D01*
X47481952Y-87653809D01*
X47386714Y-87606190D01*
X47196238Y-87558571D01*
X47100999Y-87510952D01*
X47053380Y-87463333D01*
X47005761Y-87368095D01*
X47005761Y-87272857D01*
X47053380Y-87177619D01*
X47100999Y-87130000D01*
X47196238Y-87082380D01*
X47434333Y-87082380D01*
X47577190Y-87130000D01*
X47910523Y-87415714D02*
X48148619Y-88082380D01*
X48386714Y-87415714D02*
X48148619Y-88082380D01*
X48053380Y-88320476D01*
X48005761Y-88368095D01*
X47910523Y-88415714D01*
X48720047Y-88034761D02*
X48815285Y-88082380D01*
X49005761Y-88082380D01*
X49100999Y-88034761D01*
X49148619Y-87939523D01*
X49148619Y-87891904D01*
X49100999Y-87796666D01*
X49005761Y-87749047D01*
X48862904Y-87749047D01*
X48767666Y-87701428D01*
X48720047Y-87606190D01*
X48720047Y-87558571D01*
X48767666Y-87463333D01*
X48862904Y-87415714D01*
X49005761Y-87415714D01*
X49100999Y-87463333D01*
X49434333Y-87415714D02*
X49815285Y-87415714D01*
X49577190Y-87082380D02*
X49577190Y-87939523D01*
X49624809Y-88034761D01*
X49720047Y-88082380D01*
X49815285Y-88082380D01*
X50529571Y-88034761D02*
X50434333Y-88082380D01*
X50243857Y-88082380D01*
X50148619Y-88034761D01*
X50100999Y-87939523D01*
X50100999Y-87558571D01*
X50148619Y-87463333D01*
X50243857Y-87415714D01*
X50434333Y-87415714D01*
X50529571Y-87463333D01*
X50577190Y-87558571D01*
X50577190Y-87653809D01*
X50100999Y-87749047D01*
X51005761Y-88082380D02*
X51005761Y-87415714D01*
X51005761Y-87510952D02*
X51053380Y-87463333D01*
X51148619Y-87415714D01*
X51291476Y-87415714D01*
X51386714Y-87463333D01*
X51434333Y-87558571D01*
X51434333Y-88082380D01*
X51434333Y-87558571D02*
X51481952Y-87463333D01*
X51577190Y-87415714D01*
X51720047Y-87415714D01*
X51815285Y-87463333D01*
X51862904Y-87558571D01*
X51862904Y-88082380D01*
X52291476Y-88034761D02*
X52386714Y-88082380D01*
X52577190Y-88082380D01*
X52672428Y-88034761D01*
X52720047Y-87939523D01*
X52720047Y-87891904D01*
X52672428Y-87796666D01*
X52577190Y-87749047D01*
X52434333Y-87749047D01*
X52339095Y-87701428D01*
X52291476Y-87606190D01*
X52291476Y-87558571D01*
X52339095Y-87463333D01*
X52434333Y-87415714D01*
X52577190Y-87415714D01*
X52672428Y-87463333D01*
X39505619Y-89209571D02*
X39838952Y-89209571D01*
X39981809Y-89733380D02*
X39505619Y-89733380D01*
X39505619Y-88733380D01*
X39981809Y-88733380D01*
X40362761Y-89685761D02*
X40505619Y-89733380D01*
X40743714Y-89733380D01*
X40838952Y-89685761D01*
X40886571Y-89638142D01*
X40934190Y-89542904D01*
X40934190Y-89447666D01*
X40886571Y-89352428D01*
X40838952Y-89304809D01*
X40743714Y-89257190D01*
X40553238Y-89209571D01*
X40458000Y-89161952D01*
X40410380Y-89114333D01*
X40362761Y-89019095D01*
X40362761Y-88923857D01*
X40410380Y-88828619D01*
X40458000Y-88781000D01*
X40553238Y-88733380D01*
X40791333Y-88733380D01*
X40934190Y-88781000D01*
X41362761Y-89733380D02*
X41362761Y-88733380D01*
X41743714Y-88733380D01*
X41838952Y-88781000D01*
X41886571Y-88828619D01*
X41934190Y-88923857D01*
X41934190Y-89066714D01*
X41886571Y-89161952D01*
X41838952Y-89209571D01*
X41743714Y-89257190D01*
X41362761Y-89257190D01*
X42267523Y-88733380D02*
X42886571Y-88733380D01*
X42553238Y-89114333D01*
X42696095Y-89114333D01*
X42791333Y-89161952D01*
X42838952Y-89209571D01*
X42886571Y-89304809D01*
X42886571Y-89542904D01*
X42838952Y-89638142D01*
X42791333Y-89685761D01*
X42696095Y-89733380D01*
X42410380Y-89733380D01*
X42315142Y-89685761D01*
X42267523Y-89638142D01*
X43267523Y-88828619D02*
X43315142Y-88781000D01*
X43410380Y-88733380D01*
X43648476Y-88733380D01*
X43743714Y-88781000D01*
X43791333Y-88828619D01*
X43838952Y-88923857D01*
X43838952Y-89019095D01*
X43791333Y-89161952D01*
X43219904Y-89733380D01*
X43838952Y-89733380D01*
X44267523Y-89352428D02*
X45029428Y-89352428D01*
X45410380Y-88733380D02*
X45648476Y-89733380D01*
X45838952Y-89019095D01*
X46029428Y-89733380D01*
X46267523Y-88733380D01*
X47219904Y-89733380D02*
X46886571Y-89257190D01*
X46648476Y-89733380D02*
X46648476Y-88733380D01*
X47029428Y-88733380D01*
X47124666Y-88781000D01*
X47172285Y-88828619D01*
X47219904Y-88923857D01*
X47219904Y-89066714D01*
X47172285Y-89161952D01*
X47124666Y-89209571D01*
X47029428Y-89257190D01*
X46648476Y-89257190D01*
X47838952Y-88733380D02*
X48029428Y-88733380D01*
X48124666Y-88781000D01*
X48219904Y-88876238D01*
X48267523Y-89066714D01*
X48267523Y-89400047D01*
X48219904Y-89590523D01*
X48124666Y-89685761D01*
X48029428Y-89733380D01*
X47838952Y-89733380D01*
X47743714Y-89685761D01*
X47648476Y-89590523D01*
X47600857Y-89400047D01*
X47600857Y-89066714D01*
X47648476Y-88876238D01*
X47743714Y-88781000D01*
X47838952Y-88733380D01*
X48886571Y-88733380D02*
X49077047Y-88733380D01*
X49172285Y-88781000D01*
X49267523Y-88876238D01*
X49315142Y-89066714D01*
X49315142Y-89400047D01*
X49267523Y-89590523D01*
X49172285Y-89685761D01*
X49077047Y-89733380D01*
X48886571Y-89733380D01*
X48791333Y-89685761D01*
X48696095Y-89590523D01*
X48648476Y-89400047D01*
X48648476Y-89066714D01*
X48696095Y-88876238D01*
X48791333Y-88781000D01*
X48886571Y-88733380D01*
X49743714Y-89733380D02*
X49743714Y-88733380D01*
X50077047Y-89447666D01*
X50410380Y-88733380D01*
X50410380Y-89733380D01*
X81747142Y-106084666D02*
X81794761Y-106132285D01*
X81842380Y-106275142D01*
X81842380Y-106370380D01*
X81794761Y-106513238D01*
X81699523Y-106608476D01*
X81604285Y-106656095D01*
X81413809Y-106703714D01*
X81270952Y-106703714D01*
X81080476Y-106656095D01*
X80985238Y-106608476D01*
X80890000Y-106513238D01*
X80842380Y-106370380D01*
X80842380Y-106275142D01*
X80890000Y-106132285D01*
X80937619Y-106084666D01*
X81842380Y-105132285D02*
X81842380Y-105703714D01*
X81842380Y-105418000D02*
X80842380Y-105418000D01*
X80985238Y-105513238D01*
X81080476Y-105608476D01*
X81128095Y-105703714D01*
X63571142Y-105830666D02*
X63618761Y-105878285D01*
X63666380Y-106021142D01*
X63666380Y-106116380D01*
X63618761Y-106259238D01*
X63523523Y-106354476D01*
X63428285Y-106402095D01*
X63237809Y-106449714D01*
X63094952Y-106449714D01*
X62904476Y-106402095D01*
X62809238Y-106354476D01*
X62714000Y-106259238D01*
X62666380Y-106116380D01*
X62666380Y-106021142D01*
X62714000Y-105878285D01*
X62761619Y-105830666D01*
X62761619Y-105449714D02*
X62714000Y-105402095D01*
X62666380Y-105306857D01*
X62666380Y-105068761D01*
X62714000Y-104973523D01*
X62761619Y-104925904D01*
X62856857Y-104878285D01*
X62952095Y-104878285D01*
X63094952Y-104925904D01*
X63666380Y-105497333D01*
X63666380Y-104878285D01*
X54095142Y-110148666D02*
X54142761Y-110196285D01*
X54190380Y-110339142D01*
X54190380Y-110434380D01*
X54142761Y-110577238D01*
X54047523Y-110672476D01*
X53952285Y-110720095D01*
X53761809Y-110767714D01*
X53618952Y-110767714D01*
X53428476Y-110720095D01*
X53333238Y-110672476D01*
X53238000Y-110577238D01*
X53190380Y-110434380D01*
X53190380Y-110339142D01*
X53238000Y-110196285D01*
X53285619Y-110148666D01*
X53523714Y-109291523D02*
X54190380Y-109291523D01*
X53142761Y-109529619D02*
X53857047Y-109767714D01*
X53857047Y-109148666D01*
X41743333Y-109027142D02*
X41695714Y-109074761D01*
X41552857Y-109122380D01*
X41457619Y-109122380D01*
X41314761Y-109074761D01*
X41219523Y-108979523D01*
X41171904Y-108884285D01*
X41124285Y-108693809D01*
X41124285Y-108550952D01*
X41171904Y-108360476D01*
X41219523Y-108265238D01*
X41314761Y-108170000D01*
X41457619Y-108122380D01*
X41552857Y-108122380D01*
X41695714Y-108170000D01*
X41743333Y-108217619D01*
X42600476Y-108122380D02*
X42410000Y-108122380D01*
X42314761Y-108170000D01*
X42267142Y-108217619D01*
X42171904Y-108360476D01*
X42124285Y-108550952D01*
X42124285Y-108931904D01*
X42171904Y-109027142D01*
X42219523Y-109074761D01*
X42314761Y-109122380D01*
X42505238Y-109122380D01*
X42600476Y-109074761D01*
X42648095Y-109027142D01*
X42695714Y-108931904D01*
X42695714Y-108693809D01*
X42648095Y-108598571D01*
X42600476Y-108550952D01*
X42505238Y-108503333D01*
X42314761Y-108503333D01*
X42219523Y-108550952D01*
X42171904Y-108598571D01*
X42124285Y-108693809D01*
X76985904Y-106806380D02*
X76985904Y-105806380D01*
X77224000Y-105806380D01*
X77366857Y-105854000D01*
X77462095Y-105949238D01*
X77509714Y-106044476D01*
X77557333Y-106234952D01*
X77557333Y-106377809D01*
X77509714Y-106568285D01*
X77462095Y-106663523D01*
X77366857Y-106758761D01*
X77224000Y-106806380D01*
X76985904Y-106806380D01*
X77938285Y-105901619D02*
X77985904Y-105854000D01*
X78081142Y-105806380D01*
X78319238Y-105806380D01*
X78414476Y-105854000D01*
X78462095Y-105901619D01*
X78509714Y-105996857D01*
X78509714Y-106092095D01*
X78462095Y-106234952D01*
X77890666Y-106806380D01*
X78509714Y-106806380D01*
X49109333Y-122076380D02*
X48776000Y-121600190D01*
X48537904Y-122076380D02*
X48537904Y-121076380D01*
X48918857Y-121076380D01*
X49014095Y-121124000D01*
X49061714Y-121171619D01*
X49109333Y-121266857D01*
X49109333Y-121409714D01*
X49061714Y-121504952D01*
X49014095Y-121552571D01*
X48918857Y-121600190D01*
X48537904Y-121600190D01*
X49490285Y-121171619D02*
X49537904Y-121124000D01*
X49633142Y-121076380D01*
X49871238Y-121076380D01*
X49966476Y-121124000D01*
X50014095Y-121171619D01*
X50061714Y-121266857D01*
X50061714Y-121362095D01*
X50014095Y-121504952D01*
X49442666Y-122076380D01*
X50061714Y-122076380D01*
X69498380Y-97956666D02*
X69022190Y-98290000D01*
X69498380Y-98528095D02*
X68498380Y-98528095D01*
X68498380Y-98147142D01*
X68546000Y-98051904D01*
X68593619Y-98004285D01*
X68688857Y-97956666D01*
X68831714Y-97956666D01*
X68926952Y-98004285D01*
X68974571Y-98051904D01*
X69022190Y-98147142D01*
X69022190Y-98528095D01*
X68831714Y-97099523D02*
X69498380Y-97099523D01*
X68450761Y-97337619D02*
X69165047Y-97575714D01*
X69165047Y-96956666D01*
X70090380Y-97956666D02*
X69614190Y-98290000D01*
X70090380Y-98528095D02*
X69090380Y-98528095D01*
X69090380Y-98147142D01*
X69138000Y-98051904D01*
X69185619Y-98004285D01*
X69280857Y-97956666D01*
X69423714Y-97956666D01*
X69518952Y-98004285D01*
X69566571Y-98051904D01*
X69614190Y-98147142D01*
X69614190Y-98528095D01*
X69090380Y-97051904D02*
X69090380Y-97528095D01*
X69566571Y-97575714D01*
X69518952Y-97528095D01*
X69471333Y-97432857D01*
X69471333Y-97194761D01*
X69518952Y-97099523D01*
X69566571Y-97051904D01*
X69661809Y-97004285D01*
X69899904Y-97004285D01*
X69995142Y-97051904D01*
X70042761Y-97099523D01*
X70090380Y-97194761D01*
X70090380Y-97432857D01*
X70042761Y-97528095D01*
X69995142Y-97575714D01*
X61274761Y-82359333D02*
X61322380Y-82216476D01*
X61322380Y-81978380D01*
X61274761Y-81883142D01*
X61227142Y-81835523D01*
X61131904Y-81787904D01*
X61036666Y-81787904D01*
X60941428Y-81835523D01*
X60893809Y-81883142D01*
X60846190Y-81978380D01*
X60798571Y-82168857D01*
X60750952Y-82264095D01*
X60703333Y-82311714D01*
X60608095Y-82359333D01*
X60512857Y-82359333D01*
X60417619Y-82311714D01*
X60370000Y-82264095D01*
X60322380Y-82168857D01*
X60322380Y-81930761D01*
X60370000Y-81787904D01*
X60322380Y-81454571D02*
X61322380Y-81216476D01*
X60608095Y-81026000D01*
X61322380Y-80835523D01*
X60322380Y-80597428D01*
X61322380Y-79692666D02*
X61322380Y-80264095D01*
X61322380Y-79978380D02*
X60322380Y-79978380D01*
X60465238Y-80073619D01*
X60560476Y-80168857D01*
X60608095Y-80264095D01*
X41084666Y-113778761D02*
X41227523Y-113826380D01*
X41465619Y-113826380D01*
X41560857Y-113778761D01*
X41608476Y-113731142D01*
X41656095Y-113635904D01*
X41656095Y-113540666D01*
X41608476Y-113445428D01*
X41560857Y-113397809D01*
X41465619Y-113350190D01*
X41275142Y-113302571D01*
X41179904Y-113254952D01*
X41132285Y-113207333D01*
X41084666Y-113112095D01*
X41084666Y-113016857D01*
X41132285Y-112921619D01*
X41179904Y-112874000D01*
X41275142Y-112826380D01*
X41513238Y-112826380D01*
X41656095Y-112874000D01*
X41989428Y-112826380D02*
X42227523Y-113826380D01*
X42418000Y-113112095D01*
X42608476Y-113826380D01*
X42846571Y-112826380D01*
X43179904Y-112921619D02*
X43227523Y-112874000D01*
X43322761Y-112826380D01*
X43560857Y-112826380D01*
X43656095Y-112874000D01*
X43703714Y-112921619D01*
X43751333Y-113016857D01*
X43751333Y-113112095D01*
X43703714Y-113254952D01*
X43132285Y-113826380D01*
X43751333Y-113826380D01*
X41084666Y-120636761D02*
X41227523Y-120684380D01*
X41465619Y-120684380D01*
X41560857Y-120636761D01*
X41608476Y-120589142D01*
X41656095Y-120493904D01*
X41656095Y-120398666D01*
X41608476Y-120303428D01*
X41560857Y-120255809D01*
X41465619Y-120208190D01*
X41275142Y-120160571D01*
X41179904Y-120112952D01*
X41132285Y-120065333D01*
X41084666Y-119970095D01*
X41084666Y-119874857D01*
X41132285Y-119779619D01*
X41179904Y-119732000D01*
X41275142Y-119684380D01*
X41513238Y-119684380D01*
X41656095Y-119732000D01*
X41989428Y-119684380D02*
X42227523Y-120684380D01*
X42418000Y-119970095D01*
X42608476Y-120684380D01*
X42846571Y-119684380D01*
X43132285Y-119684380D02*
X43751333Y-119684380D01*
X43418000Y-120065333D01*
X43560857Y-120065333D01*
X43656095Y-120112952D01*
X43703714Y-120160571D01*
X43751333Y-120255809D01*
X43751333Y-120493904D01*
X43703714Y-120589142D01*
X43656095Y-120636761D01*
X43560857Y-120684380D01*
X43275142Y-120684380D01*
X43179904Y-120636761D01*
X43132285Y-120589142D01*
X71406380Y-101853904D02*
X72215904Y-101853904D01*
X72311142Y-101806285D01*
X72358761Y-101758666D01*
X72406380Y-101663428D01*
X72406380Y-101472952D01*
X72358761Y-101377714D01*
X72311142Y-101330095D01*
X72215904Y-101282476D01*
X71406380Y-101282476D01*
X72406380Y-100282476D02*
X72406380Y-100853904D01*
X72406380Y-100568190D02*
X71406380Y-100568190D01*
X71549238Y-100663428D01*
X71644476Y-100758666D01*
X71692095Y-100853904D01*
X95649142Y-89828666D02*
X95696761Y-89876285D01*
X95744380Y-90019142D01*
X95744380Y-90114380D01*
X95696761Y-90257238D01*
X95601523Y-90352476D01*
X95506285Y-90400095D01*
X95315809Y-90447714D01*
X95172952Y-90447714D01*
X94982476Y-90400095D01*
X94887238Y-90352476D01*
X94792000Y-90257238D01*
X94744380Y-90114380D01*
X94744380Y-90019142D01*
X94792000Y-89876285D01*
X94839619Y-89828666D01*
X95172952Y-89257238D02*
X95125333Y-89352476D01*
X95077714Y-89400095D01*
X94982476Y-89447714D01*
X94934857Y-89447714D01*
X94839619Y-89400095D01*
X94792000Y-89352476D01*
X94744380Y-89257238D01*
X94744380Y-89066761D01*
X94792000Y-88971523D01*
X94839619Y-88923904D01*
X94934857Y-88876285D01*
X94982476Y-88876285D01*
X95077714Y-88923904D01*
X95125333Y-88971523D01*
X95172952Y-89066761D01*
X95172952Y-89257238D01*
X95220571Y-89352476D01*
X95268190Y-89400095D01*
X95363428Y-89447714D01*
X95553904Y-89447714D01*
X95649142Y-89400095D01*
X95696761Y-89352476D01*
X95744380Y-89257238D01*
X95744380Y-89066761D01*
X95696761Y-88971523D01*
X95649142Y-88923904D01*
X95553904Y-88876285D01*
X95363428Y-88876285D01*
X95268190Y-88923904D01*
X95220571Y-88971523D01*
X95172952Y-89066761D01*
X94353142Y-81774380D02*
X94019809Y-81298190D01*
X93781714Y-81774380D02*
X93781714Y-80774380D01*
X94162666Y-80774380D01*
X94257904Y-80822000D01*
X94305523Y-80869619D01*
X94353142Y-80964857D01*
X94353142Y-81107714D01*
X94305523Y-81202952D01*
X94257904Y-81250571D01*
X94162666Y-81298190D01*
X93781714Y-81298190D01*
X95305523Y-81774380D02*
X94734095Y-81774380D01*
X95019809Y-81774380D02*
X95019809Y-80774380D01*
X94924571Y-80917238D01*
X94829333Y-81012476D01*
X94734095Y-81060095D01*
X95686476Y-80869619D02*
X95734095Y-80822000D01*
X95829333Y-80774380D01*
X96067428Y-80774380D01*
X96162666Y-80822000D01*
X96210285Y-80869619D01*
X96257904Y-80964857D01*
X96257904Y-81060095D01*
X96210285Y-81202952D01*
X95638857Y-81774380D01*
X96257904Y-81774380D01*
X95744380Y-84208857D02*
X95268190Y-84542190D01*
X95744380Y-84780285D02*
X94744380Y-84780285D01*
X94744380Y-84399333D01*
X94792000Y-84304095D01*
X94839619Y-84256476D01*
X94934857Y-84208857D01*
X95077714Y-84208857D01*
X95172952Y-84256476D01*
X95220571Y-84304095D01*
X95268190Y-84399333D01*
X95268190Y-84780285D01*
X95744380Y-83256476D02*
X95744380Y-83827904D01*
X95744380Y-83542190D02*
X94744380Y-83542190D01*
X94887238Y-83637428D01*
X94982476Y-83732666D01*
X95030095Y-83827904D01*
X94744380Y-82923142D02*
X94744380Y-82304095D01*
X95125333Y-82637428D01*
X95125333Y-82494571D01*
X95172952Y-82399333D01*
X95220571Y-82351714D01*
X95315809Y-82304095D01*
X95553904Y-82304095D01*
X95649142Y-82351714D01*
X95696761Y-82399333D01*
X95744380Y-82494571D01*
X95744380Y-82780285D01*
X95696761Y-82875523D01*
X95649142Y-82923142D01*
X57356476Y-112918380D02*
X57356476Y-111918380D01*
X57689809Y-112632666D01*
X58023142Y-111918380D01*
X58023142Y-112918380D01*
X59023142Y-112918380D02*
X58451714Y-112918380D01*
X58737428Y-112918380D02*
X58737428Y-111918380D01*
X58642190Y-112061238D01*
X58546952Y-112156476D01*
X58451714Y-112204095D01*
X105397666Y-98782380D02*
X105397666Y-99496666D01*
X105350047Y-99639523D01*
X105254809Y-99734761D01*
X105111952Y-99782380D01*
X105016714Y-99782380D01*
X105826238Y-98877619D02*
X105873857Y-98830000D01*
X105969095Y-98782380D01*
X106207190Y-98782380D01*
X106302428Y-98830000D01*
X106350047Y-98877619D01*
X106397666Y-98972857D01*
X106397666Y-99068095D01*
X106350047Y-99210952D01*
X105778619Y-99782380D01*
X106397666Y-99782380D01*
X105397666Y-88876380D02*
X105397666Y-89590666D01*
X105350047Y-89733523D01*
X105254809Y-89828761D01*
X105111952Y-89876380D01*
X105016714Y-89876380D01*
X105778619Y-88876380D02*
X106397666Y-88876380D01*
X106064333Y-89257333D01*
X106207190Y-89257333D01*
X106302428Y-89304952D01*
X106350047Y-89352571D01*
X106397666Y-89447809D01*
X106397666Y-89685904D01*
X106350047Y-89781142D01*
X106302428Y-89828761D01*
X106207190Y-89876380D01*
X105921476Y-89876380D01*
X105826238Y-89828761D01*
X105778619Y-89781142D01*
X105397666Y-78462380D02*
X105397666Y-79176666D01*
X105350047Y-79319523D01*
X105254809Y-79414761D01*
X105111952Y-79462380D01*
X105016714Y-79462380D01*
X106302428Y-78795714D02*
X106302428Y-79462380D01*
X106064333Y-78414761D02*
X105826238Y-79129047D01*
X106445285Y-79129047D01*
X38584380Y-77228333D02*
X39298666Y-77228333D01*
X39441523Y-77275952D01*
X39536761Y-77371190D01*
X39584380Y-77514047D01*
X39584380Y-77609285D01*
X38584380Y-76275952D02*
X38584380Y-76752142D01*
X39060571Y-76799761D01*
X39012952Y-76752142D01*
X38965333Y-76656904D01*
X38965333Y-76418809D01*
X39012952Y-76323571D01*
X39060571Y-76275952D01*
X39155809Y-76228333D01*
X39393904Y-76228333D01*
X39489142Y-76275952D01*
X39536761Y-76323571D01*
X39584380Y-76418809D01*
X39584380Y-76656904D01*
X39536761Y-76752142D01*
X39489142Y-76799761D01*
X75414380Y-80276333D02*
X76128666Y-80276333D01*
X76271523Y-80323952D01*
X76366761Y-80419190D01*
X76414380Y-80562047D01*
X76414380Y-80657285D01*
X75414380Y-79371571D02*
X75414380Y-79562047D01*
X75462000Y-79657285D01*
X75509619Y-79704904D01*
X75652476Y-79800142D01*
X75842952Y-79847761D01*
X76223904Y-79847761D01*
X76319142Y-79800142D01*
X76366761Y-79752523D01*
X76414380Y-79657285D01*
X76414380Y-79466809D01*
X76366761Y-79371571D01*
X76319142Y-79323952D01*
X76223904Y-79276333D01*
X75985809Y-79276333D01*
X75890571Y-79323952D01*
X75842952Y-79371571D01*
X75795333Y-79466809D01*
X75795333Y-79657285D01*
X75842952Y-79752523D01*
X75890571Y-79800142D01*
X75985809Y-79847761D01*
X95999666Y-114784380D02*
X95999666Y-115498666D01*
X95952047Y-115641523D01*
X95856809Y-115736761D01*
X95713952Y-115784380D01*
X95618714Y-115784380D01*
X96380619Y-114784380D02*
X97047285Y-114784380D01*
X96618714Y-115784380D01*
X64244380Y-99893333D02*
X64958666Y-99893333D01*
X65101523Y-99940952D01*
X65196761Y-100036190D01*
X65244380Y-100179047D01*
X65244380Y-100274285D01*
X65244380Y-99417142D02*
X64244380Y-99417142D01*
X64244380Y-99036190D01*
X64292000Y-98940952D01*
X64339619Y-98893333D01*
X64434857Y-98845714D01*
X64577714Y-98845714D01*
X64672952Y-98893333D01*
X64720571Y-98940952D01*
X64768190Y-99036190D01*
X64768190Y-99417142D01*
X65244380Y-97893333D02*
X65244380Y-98464761D01*
X65244380Y-98179047D02*
X64244380Y-98179047D01*
X64387238Y-98274285D01*
X64482476Y-98369523D01*
X64530095Y-98464761D01*
M02*
