G04 #@! TF.GenerationSoftware,KiCad,Pcbnew,5.1.6-c6e7f7d~87~ubuntu20.04.1*
G04 #@! TF.CreationDate,2020-07-23T13:09:22+02:00*
G04 #@! TF.ProjectId,lotusble,6c6f7475-7362-46c6-952e-6b696361645f,rev?*
G04 #@! TF.SameCoordinates,Original*
G04 #@! TF.FileFunction,Soldermask,Bot*
G04 #@! TF.FilePolarity,Negative*
%FSLAX46Y46*%
G04 Gerber Fmt 4.6, Leading zero omitted, Abs format (unit mm)*
G04 Created by KiCad (PCBNEW 5.1.6-c6e7f7d~87~ubuntu20.04.1) date 2020-07-23 13:09:22*
%MOMM*%
%LPD*%
G01*
G04 APERTURE LIST*
%ADD10C,0.100000*%
G04 APERTURE END LIST*
D10*
G36*
X92061512Y-121785927D02*
G01*
X92210812Y-121815624D01*
X92374784Y-121883544D01*
X92522354Y-121982147D01*
X92647853Y-122107646D01*
X92746456Y-122255216D01*
X92814376Y-122419188D01*
X92849000Y-122593259D01*
X92849000Y-122770741D01*
X92814376Y-122944812D01*
X92746456Y-123108784D01*
X92647853Y-123256354D01*
X92522354Y-123381853D01*
X92374784Y-123480456D01*
X92210812Y-123548376D01*
X92061512Y-123578073D01*
X92036742Y-123583000D01*
X91859258Y-123583000D01*
X91834488Y-123578073D01*
X91685188Y-123548376D01*
X91521216Y-123480456D01*
X91373646Y-123381853D01*
X91248147Y-123256354D01*
X91149544Y-123108784D01*
X91081624Y-122944812D01*
X91047000Y-122770741D01*
X91047000Y-122593259D01*
X91081624Y-122419188D01*
X91149544Y-122255216D01*
X91248147Y-122107646D01*
X91373646Y-121982147D01*
X91521216Y-121883544D01*
X91685188Y-121815624D01*
X91834488Y-121785927D01*
X91859258Y-121781000D01*
X92036742Y-121781000D01*
X92061512Y-121785927D01*
G37*
G36*
X92061512Y-119245927D02*
G01*
X92210812Y-119275624D01*
X92374784Y-119343544D01*
X92522354Y-119442147D01*
X92647853Y-119567646D01*
X92746456Y-119715216D01*
X92814376Y-119879188D01*
X92849000Y-120053259D01*
X92849000Y-120230741D01*
X92814376Y-120404812D01*
X92746456Y-120568784D01*
X92647853Y-120716354D01*
X92522354Y-120841853D01*
X92374784Y-120940456D01*
X92210812Y-121008376D01*
X92061512Y-121038073D01*
X92036742Y-121043000D01*
X91859258Y-121043000D01*
X91834488Y-121038073D01*
X91685188Y-121008376D01*
X91521216Y-120940456D01*
X91373646Y-120841853D01*
X91248147Y-120716354D01*
X91149544Y-120568784D01*
X91081624Y-120404812D01*
X91047000Y-120230741D01*
X91047000Y-120053259D01*
X91081624Y-119879188D01*
X91149544Y-119715216D01*
X91248147Y-119567646D01*
X91373646Y-119442147D01*
X91521216Y-119343544D01*
X91685188Y-119275624D01*
X91834488Y-119245927D01*
X91859258Y-119241000D01*
X92036742Y-119241000D01*
X92061512Y-119245927D01*
G37*
G36*
X73691000Y-120427000D02*
G01*
X71089000Y-120427000D01*
X71089000Y-117825000D01*
X73691000Y-117825000D01*
X73691000Y-120427000D01*
G37*
G36*
X77849487Y-117874996D02*
G01*
X78086253Y-117973068D01*
X78086255Y-117973069D01*
X78299339Y-118115447D01*
X78480553Y-118296661D01*
X78622932Y-118509747D01*
X78721004Y-118746513D01*
X78771000Y-118997861D01*
X78771000Y-119254139D01*
X78721004Y-119505487D01*
X78695256Y-119567647D01*
X78622931Y-119742255D01*
X78480553Y-119955339D01*
X78299339Y-120136553D01*
X78086255Y-120278931D01*
X78086254Y-120278932D01*
X78086253Y-120278932D01*
X77849487Y-120377004D01*
X77598139Y-120427000D01*
X77341861Y-120427000D01*
X77090513Y-120377004D01*
X76853747Y-120278932D01*
X76853746Y-120278932D01*
X76853745Y-120278931D01*
X76640661Y-120136553D01*
X76459447Y-119955339D01*
X76317069Y-119742255D01*
X76244744Y-119567647D01*
X76218996Y-119505487D01*
X76169000Y-119254139D01*
X76169000Y-118997861D01*
X76218996Y-118746513D01*
X76317068Y-118509747D01*
X76459447Y-118296661D01*
X76640661Y-118115447D01*
X76853745Y-117973069D01*
X76853747Y-117973068D01*
X77090513Y-117874996D01*
X77341861Y-117825000D01*
X77598139Y-117825000D01*
X77849487Y-117874996D01*
G37*
G36*
X92849000Y-118503000D02*
G01*
X91047000Y-118503000D01*
X91047000Y-116701000D01*
X92849000Y-116701000D01*
X92849000Y-118503000D01*
G37*
G36*
X57076547Y-115453326D02*
G01*
X57250156Y-115505990D01*
X57250158Y-115505991D01*
X57410155Y-115591511D01*
X57550397Y-115706603D01*
X57629729Y-115803271D01*
X57665489Y-115846844D01*
X57751010Y-116006843D01*
X57803674Y-116180452D01*
X57817000Y-116315756D01*
X57817000Y-116856243D01*
X57803674Y-116991548D01*
X57751010Y-117165157D01*
X57665489Y-117325156D01*
X57629729Y-117368729D01*
X57550397Y-117465397D01*
X57453729Y-117544729D01*
X57410156Y-117580489D01*
X57250157Y-117666010D01*
X57076548Y-117718674D01*
X56896000Y-117736456D01*
X56715453Y-117718674D01*
X56541844Y-117666010D01*
X56381845Y-117580489D01*
X56338272Y-117544729D01*
X56241604Y-117465397D01*
X56126513Y-117325157D01*
X56126512Y-117325155D01*
X56040990Y-117165157D01*
X55988326Y-116991548D01*
X55975000Y-116856244D01*
X55975000Y-116315757D01*
X55988326Y-116180453D01*
X56040990Y-116006844D01*
X56126511Y-115846845D01*
X56126512Y-115846844D01*
X56241603Y-115706603D01*
X56367388Y-115603375D01*
X56381844Y-115591511D01*
X56541843Y-115505990D01*
X56715452Y-115453326D01*
X56896000Y-115435544D01*
X57076547Y-115453326D01*
G37*
G36*
X62156547Y-115453326D02*
G01*
X62330156Y-115505990D01*
X62330158Y-115505991D01*
X62490155Y-115591511D01*
X62630397Y-115706603D01*
X62709729Y-115803271D01*
X62745489Y-115846844D01*
X62831010Y-116006843D01*
X62883674Y-116180452D01*
X62897000Y-116315756D01*
X62897000Y-116856243D01*
X62883674Y-116991548D01*
X62831010Y-117165157D01*
X62745489Y-117325156D01*
X62709729Y-117368729D01*
X62630397Y-117465397D01*
X62533729Y-117544729D01*
X62490156Y-117580489D01*
X62330157Y-117666010D01*
X62156548Y-117718674D01*
X61976000Y-117736456D01*
X61795453Y-117718674D01*
X61621844Y-117666010D01*
X61461845Y-117580489D01*
X61418272Y-117544729D01*
X61321604Y-117465397D01*
X61206513Y-117325157D01*
X61206512Y-117325155D01*
X61120990Y-117165157D01*
X61068326Y-116991548D01*
X61055000Y-116856244D01*
X61055000Y-116315757D01*
X61068326Y-116180453D01*
X61120990Y-116006844D01*
X61206511Y-115846845D01*
X61206512Y-115846844D01*
X61321603Y-115706603D01*
X61447388Y-115603375D01*
X61461844Y-115591511D01*
X61621843Y-115505990D01*
X61795452Y-115453326D01*
X61976000Y-115435544D01*
X62156547Y-115453326D01*
G37*
G36*
X59616547Y-115453326D02*
G01*
X59790156Y-115505990D01*
X59790158Y-115505991D01*
X59950155Y-115591511D01*
X60090397Y-115706603D01*
X60169729Y-115803271D01*
X60205489Y-115846844D01*
X60291010Y-116006843D01*
X60343674Y-116180452D01*
X60357000Y-116315756D01*
X60357000Y-116856243D01*
X60343674Y-116991548D01*
X60291010Y-117165157D01*
X60205489Y-117325156D01*
X60169729Y-117368729D01*
X60090397Y-117465397D01*
X59993729Y-117544729D01*
X59950156Y-117580489D01*
X59790157Y-117666010D01*
X59616548Y-117718674D01*
X59436000Y-117736456D01*
X59255453Y-117718674D01*
X59081844Y-117666010D01*
X58921845Y-117580489D01*
X58878272Y-117544729D01*
X58781604Y-117465397D01*
X58666513Y-117325157D01*
X58666512Y-117325155D01*
X58580990Y-117165157D01*
X58528326Y-116991548D01*
X58515000Y-116856244D01*
X58515000Y-116315757D01*
X58528326Y-116180453D01*
X58580990Y-116006844D01*
X58666511Y-115846845D01*
X58666512Y-115846844D01*
X58781603Y-115706603D01*
X58907388Y-115603375D01*
X58921844Y-115591511D01*
X59081843Y-115505990D01*
X59255452Y-115453326D01*
X59436000Y-115435544D01*
X59616547Y-115453326D01*
G37*
G36*
X55135561Y-115443966D02*
G01*
X55168383Y-115453923D01*
X55198632Y-115470092D01*
X55225148Y-115491852D01*
X55246908Y-115518368D01*
X55263077Y-115548617D01*
X55273034Y-115581439D01*
X55277000Y-115621713D01*
X55277000Y-117550287D01*
X55273034Y-117590561D01*
X55263077Y-117623383D01*
X55246908Y-117653632D01*
X55225148Y-117680148D01*
X55198632Y-117701908D01*
X55168383Y-117718077D01*
X55135561Y-117728034D01*
X55095287Y-117732000D01*
X53616713Y-117732000D01*
X53576439Y-117728034D01*
X53543617Y-117718077D01*
X53513368Y-117701908D01*
X53486852Y-117680148D01*
X53465092Y-117653632D01*
X53448923Y-117623383D01*
X53438966Y-117590561D01*
X53435000Y-117550287D01*
X53435000Y-115621713D01*
X53438966Y-115581439D01*
X53448923Y-115548617D01*
X53465092Y-115518368D01*
X53486852Y-115491852D01*
X53513368Y-115470092D01*
X53543617Y-115453923D01*
X53576439Y-115443966D01*
X53616713Y-115440000D01*
X55095287Y-115440000D01*
X55135561Y-115443966D01*
G37*
G36*
X95572562Y-110838181D02*
G01*
X95607481Y-110848774D01*
X95639663Y-110865976D01*
X95667873Y-110889127D01*
X95691024Y-110917337D01*
X95708226Y-110949519D01*
X95718819Y-110984438D01*
X95723000Y-111026895D01*
X95723000Y-112493105D01*
X95718819Y-112535562D01*
X95708226Y-112570481D01*
X95691024Y-112602663D01*
X95667873Y-112630873D01*
X95639663Y-112654024D01*
X95607481Y-112671226D01*
X95572562Y-112681819D01*
X95530105Y-112686000D01*
X94388895Y-112686000D01*
X94346438Y-112681819D01*
X94311519Y-112671226D01*
X94279337Y-112654024D01*
X94251127Y-112630873D01*
X94227976Y-112602663D01*
X94210774Y-112570481D01*
X94200181Y-112535562D01*
X94196000Y-112493105D01*
X94196000Y-111026895D01*
X94200181Y-110984438D01*
X94210774Y-110949519D01*
X94227976Y-110917337D01*
X94251127Y-110889127D01*
X94279337Y-110865976D01*
X94311519Y-110848774D01*
X94346438Y-110838181D01*
X94388895Y-110834000D01*
X95530105Y-110834000D01*
X95572562Y-110838181D01*
G37*
G36*
X92597562Y-110838181D02*
G01*
X92632481Y-110848774D01*
X92664663Y-110865976D01*
X92692873Y-110889127D01*
X92716024Y-110917337D01*
X92733226Y-110949519D01*
X92743819Y-110984438D01*
X92748000Y-111026895D01*
X92748000Y-112493105D01*
X92743819Y-112535562D01*
X92733226Y-112570481D01*
X92716024Y-112602663D01*
X92692873Y-112630873D01*
X92664663Y-112654024D01*
X92632481Y-112671226D01*
X92597562Y-112681819D01*
X92555105Y-112686000D01*
X91413895Y-112686000D01*
X91371438Y-112681819D01*
X91336519Y-112671226D01*
X91304337Y-112654024D01*
X91276127Y-112630873D01*
X91252976Y-112602663D01*
X91235774Y-112570481D01*
X91225181Y-112535562D01*
X91221000Y-112493105D01*
X91221000Y-111026895D01*
X91225181Y-110984438D01*
X91235774Y-110949519D01*
X91252976Y-110917337D01*
X91276127Y-110889127D01*
X91304337Y-110865976D01*
X91336519Y-110848774D01*
X91371438Y-110838181D01*
X91413895Y-110834000D01*
X92555105Y-110834000D01*
X92597562Y-110838181D01*
G37*
G36*
X101459512Y-108323927D02*
G01*
X101608812Y-108353624D01*
X101772784Y-108421544D01*
X101920354Y-108520147D01*
X102045853Y-108645646D01*
X102144456Y-108793216D01*
X102212376Y-108957188D01*
X102247000Y-109131259D01*
X102247000Y-109308741D01*
X102212376Y-109482812D01*
X102144456Y-109646784D01*
X102045853Y-109794354D01*
X101920354Y-109919853D01*
X101772784Y-110018456D01*
X101608812Y-110086376D01*
X101459512Y-110116073D01*
X101434742Y-110121000D01*
X101257258Y-110121000D01*
X101232488Y-110116073D01*
X101083188Y-110086376D01*
X100919216Y-110018456D01*
X100771646Y-109919853D01*
X100646147Y-109794354D01*
X100547544Y-109646784D01*
X100479624Y-109482812D01*
X100445000Y-109308741D01*
X100445000Y-109131259D01*
X100479624Y-108957188D01*
X100547544Y-108793216D01*
X100646147Y-108645646D01*
X100771646Y-108520147D01*
X100919216Y-108421544D01*
X101083188Y-108353624D01*
X101232488Y-108323927D01*
X101257258Y-108319000D01*
X101434742Y-108319000D01*
X101459512Y-108323927D01*
G37*
G36*
X92597562Y-105758181D02*
G01*
X92632481Y-105768774D01*
X92664663Y-105785976D01*
X92692873Y-105809127D01*
X92716024Y-105837337D01*
X92733226Y-105869519D01*
X92743819Y-105904438D01*
X92748000Y-105946895D01*
X92748000Y-107413105D01*
X92743819Y-107455562D01*
X92733226Y-107490481D01*
X92716024Y-107522663D01*
X92692873Y-107550873D01*
X92664663Y-107574024D01*
X92632481Y-107591226D01*
X92597562Y-107601819D01*
X92555105Y-107606000D01*
X91413895Y-107606000D01*
X91371438Y-107601819D01*
X91336519Y-107591226D01*
X91304337Y-107574024D01*
X91276127Y-107550873D01*
X91252976Y-107522663D01*
X91235774Y-107490481D01*
X91225181Y-107455562D01*
X91221000Y-107413105D01*
X91221000Y-105946895D01*
X91225181Y-105904438D01*
X91235774Y-105869519D01*
X91252976Y-105837337D01*
X91276127Y-105809127D01*
X91304337Y-105785976D01*
X91336519Y-105768774D01*
X91371438Y-105758181D01*
X91413895Y-105754000D01*
X92555105Y-105754000D01*
X92597562Y-105758181D01*
G37*
G36*
X95572562Y-105758181D02*
G01*
X95607481Y-105768774D01*
X95639663Y-105785976D01*
X95667873Y-105809127D01*
X95691024Y-105837337D01*
X95708226Y-105869519D01*
X95718819Y-105904438D01*
X95723000Y-105946895D01*
X95723000Y-107413105D01*
X95718819Y-107455562D01*
X95708226Y-107490481D01*
X95691024Y-107522663D01*
X95667873Y-107550873D01*
X95639663Y-107574024D01*
X95607481Y-107591226D01*
X95572562Y-107601819D01*
X95530105Y-107606000D01*
X94388895Y-107606000D01*
X94346438Y-107601819D01*
X94311519Y-107591226D01*
X94279337Y-107574024D01*
X94251127Y-107550873D01*
X94227976Y-107522663D01*
X94210774Y-107490481D01*
X94200181Y-107455562D01*
X94196000Y-107413105D01*
X94196000Y-105946895D01*
X94200181Y-105904438D01*
X94210774Y-105869519D01*
X94227976Y-105837337D01*
X94251127Y-105809127D01*
X94279337Y-105785976D01*
X94311519Y-105768774D01*
X94346438Y-105758181D01*
X94388895Y-105754000D01*
X95530105Y-105754000D01*
X95572562Y-105758181D01*
G37*
G36*
X101459512Y-105783927D02*
G01*
X101608812Y-105813624D01*
X101772784Y-105881544D01*
X101920354Y-105980147D01*
X102045853Y-106105646D01*
X102144456Y-106253216D01*
X102212376Y-106417188D01*
X102247000Y-106591259D01*
X102247000Y-106768741D01*
X102212376Y-106942812D01*
X102144456Y-107106784D01*
X102045853Y-107254354D01*
X101920354Y-107379853D01*
X101772784Y-107478456D01*
X101608812Y-107546376D01*
X101459512Y-107576073D01*
X101434742Y-107581000D01*
X101257258Y-107581000D01*
X101232488Y-107576073D01*
X101083188Y-107546376D01*
X100919216Y-107478456D01*
X100771646Y-107379853D01*
X100646147Y-107254354D01*
X100547544Y-107106784D01*
X100479624Y-106942812D01*
X100445000Y-106768741D01*
X100445000Y-106591259D01*
X100479624Y-106417188D01*
X100547544Y-106253216D01*
X100646147Y-106105646D01*
X100771646Y-105980147D01*
X100919216Y-105881544D01*
X101083188Y-105813624D01*
X101232488Y-105783927D01*
X101257258Y-105779000D01*
X101434742Y-105779000D01*
X101459512Y-105783927D01*
G37*
G36*
X101459512Y-103243927D02*
G01*
X101608812Y-103273624D01*
X101772784Y-103341544D01*
X101920354Y-103440147D01*
X102045853Y-103565646D01*
X102144456Y-103713216D01*
X102212376Y-103877188D01*
X102247000Y-104051259D01*
X102247000Y-104228741D01*
X102212376Y-104402812D01*
X102144456Y-104566784D01*
X102045853Y-104714354D01*
X101920354Y-104839853D01*
X101772784Y-104938456D01*
X101608812Y-105006376D01*
X101459512Y-105036073D01*
X101434742Y-105041000D01*
X101257258Y-105041000D01*
X101232488Y-105036073D01*
X101083188Y-105006376D01*
X100919216Y-104938456D01*
X100771646Y-104839853D01*
X100646147Y-104714354D01*
X100547544Y-104566784D01*
X100479624Y-104402812D01*
X100445000Y-104228741D01*
X100445000Y-104051259D01*
X100479624Y-103877188D01*
X100547544Y-103713216D01*
X100646147Y-103565646D01*
X100771646Y-103440147D01*
X100919216Y-103341544D01*
X101083188Y-103273624D01*
X101232488Y-103243927D01*
X101257258Y-103239000D01*
X101434742Y-103239000D01*
X101459512Y-103243927D01*
G37*
G36*
X92597562Y-100678181D02*
G01*
X92632481Y-100688774D01*
X92664663Y-100705976D01*
X92692873Y-100729127D01*
X92716024Y-100757337D01*
X92733226Y-100789519D01*
X92743819Y-100824438D01*
X92748000Y-100866895D01*
X92748000Y-102333105D01*
X92743819Y-102375562D01*
X92733226Y-102410481D01*
X92716024Y-102442663D01*
X92692873Y-102470873D01*
X92664663Y-102494024D01*
X92632481Y-102511226D01*
X92597562Y-102521819D01*
X92555105Y-102526000D01*
X91413895Y-102526000D01*
X91371438Y-102521819D01*
X91336519Y-102511226D01*
X91304337Y-102494024D01*
X91276127Y-102470873D01*
X91252976Y-102442663D01*
X91235774Y-102410481D01*
X91225181Y-102375562D01*
X91221000Y-102333105D01*
X91221000Y-100866895D01*
X91225181Y-100824438D01*
X91235774Y-100789519D01*
X91252976Y-100757337D01*
X91276127Y-100729127D01*
X91304337Y-100705976D01*
X91336519Y-100688774D01*
X91371438Y-100678181D01*
X91413895Y-100674000D01*
X92555105Y-100674000D01*
X92597562Y-100678181D01*
G37*
G36*
X95572562Y-100678181D02*
G01*
X95607481Y-100688774D01*
X95639663Y-100705976D01*
X95667873Y-100729127D01*
X95691024Y-100757337D01*
X95708226Y-100789519D01*
X95718819Y-100824438D01*
X95723000Y-100866895D01*
X95723000Y-102333105D01*
X95718819Y-102375562D01*
X95708226Y-102410481D01*
X95691024Y-102442663D01*
X95667873Y-102470873D01*
X95639663Y-102494024D01*
X95607481Y-102511226D01*
X95572562Y-102521819D01*
X95530105Y-102526000D01*
X94388895Y-102526000D01*
X94346438Y-102521819D01*
X94311519Y-102511226D01*
X94279337Y-102494024D01*
X94251127Y-102470873D01*
X94227976Y-102442663D01*
X94210774Y-102410481D01*
X94200181Y-102375562D01*
X94196000Y-102333105D01*
X94196000Y-100866895D01*
X94200181Y-100824438D01*
X94210774Y-100789519D01*
X94227976Y-100757337D01*
X94251127Y-100729127D01*
X94279337Y-100705976D01*
X94311519Y-100688774D01*
X94346438Y-100678181D01*
X94388895Y-100674000D01*
X95530105Y-100674000D01*
X95572562Y-100678181D01*
G37*
G36*
X102247000Y-102501000D02*
G01*
X100445000Y-102501000D01*
X100445000Y-100699000D01*
X102247000Y-100699000D01*
X102247000Y-102501000D01*
G37*
G36*
X45861562Y-98646181D02*
G01*
X45896481Y-98656774D01*
X45928663Y-98673976D01*
X45956873Y-98697127D01*
X45980024Y-98725337D01*
X45997226Y-98757519D01*
X46007819Y-98792438D01*
X46012000Y-98834895D01*
X46012000Y-100301105D01*
X46007819Y-100343562D01*
X45997226Y-100378481D01*
X45980024Y-100410663D01*
X45956873Y-100438873D01*
X45928663Y-100462024D01*
X45896481Y-100479226D01*
X45861562Y-100489819D01*
X45819105Y-100494000D01*
X44677895Y-100494000D01*
X44635438Y-100489819D01*
X44600519Y-100479226D01*
X44568337Y-100462024D01*
X44540127Y-100438873D01*
X44516976Y-100410663D01*
X44499774Y-100378481D01*
X44489181Y-100343562D01*
X44485000Y-100301105D01*
X44485000Y-98834895D01*
X44489181Y-98792438D01*
X44499774Y-98757519D01*
X44516976Y-98725337D01*
X44540127Y-98697127D01*
X44568337Y-98673976D01*
X44600519Y-98656774D01*
X44635438Y-98646181D01*
X44677895Y-98642000D01*
X45819105Y-98642000D01*
X45861562Y-98646181D01*
G37*
G36*
X48836562Y-98646181D02*
G01*
X48871481Y-98656774D01*
X48903663Y-98673976D01*
X48931873Y-98697127D01*
X48955024Y-98725337D01*
X48972226Y-98757519D01*
X48982819Y-98792438D01*
X48987000Y-98834895D01*
X48987000Y-100301105D01*
X48982819Y-100343562D01*
X48972226Y-100378481D01*
X48955024Y-100410663D01*
X48931873Y-100438873D01*
X48903663Y-100462024D01*
X48871481Y-100479226D01*
X48836562Y-100489819D01*
X48794105Y-100494000D01*
X47652895Y-100494000D01*
X47610438Y-100489819D01*
X47575519Y-100479226D01*
X47543337Y-100462024D01*
X47515127Y-100438873D01*
X47491976Y-100410663D01*
X47474774Y-100378481D01*
X47464181Y-100343562D01*
X47460000Y-100301105D01*
X47460000Y-98834895D01*
X47464181Y-98792438D01*
X47474774Y-98757519D01*
X47491976Y-98725337D01*
X47515127Y-98697127D01*
X47543337Y-98673976D01*
X47575519Y-98656774D01*
X47610438Y-98646181D01*
X47652895Y-98642000D01*
X48794105Y-98642000D01*
X48836562Y-98646181D01*
G37*
G36*
X40873642Y-97019781D02*
G01*
X41019414Y-97080162D01*
X41019416Y-97080163D01*
X41150608Y-97167822D01*
X41262178Y-97279392D01*
X41349837Y-97410584D01*
X41349838Y-97410586D01*
X41410219Y-97556358D01*
X41441000Y-97711107D01*
X41441000Y-97868893D01*
X41410219Y-98023642D01*
X41349838Y-98169414D01*
X41349837Y-98169416D01*
X41262178Y-98300608D01*
X41150608Y-98412178D01*
X41019416Y-98499837D01*
X41019415Y-98499838D01*
X41019414Y-98499838D01*
X40873642Y-98560219D01*
X40718893Y-98591000D01*
X40561107Y-98591000D01*
X40406358Y-98560219D01*
X40260586Y-98499838D01*
X40260585Y-98499838D01*
X40260584Y-98499837D01*
X40129392Y-98412178D01*
X40017822Y-98300608D01*
X39930163Y-98169416D01*
X39930162Y-98169414D01*
X39869781Y-98023642D01*
X39839000Y-97868893D01*
X39839000Y-97711107D01*
X39869781Y-97556358D01*
X39930162Y-97410586D01*
X39930163Y-97410584D01*
X40017822Y-97279392D01*
X40129392Y-97167822D01*
X40260584Y-97080163D01*
X40260586Y-97080162D01*
X40406358Y-97019781D01*
X40561107Y-96989000D01*
X40718893Y-96989000D01*
X40873642Y-97019781D01*
G37*
G36*
X97858562Y-96106181D02*
G01*
X97893481Y-96116774D01*
X97925663Y-96133976D01*
X97953873Y-96157127D01*
X97977024Y-96185337D01*
X97994226Y-96217519D01*
X98004819Y-96252438D01*
X98009000Y-96294895D01*
X98009000Y-97761105D01*
X98004819Y-97803562D01*
X97994226Y-97838481D01*
X97977024Y-97870663D01*
X97953873Y-97898873D01*
X97925663Y-97922024D01*
X97893481Y-97939226D01*
X97858562Y-97949819D01*
X97816105Y-97954000D01*
X96674895Y-97954000D01*
X96632438Y-97949819D01*
X96597519Y-97939226D01*
X96565337Y-97922024D01*
X96537127Y-97898873D01*
X96513976Y-97870663D01*
X96496774Y-97838481D01*
X96486181Y-97803562D01*
X96482000Y-97761105D01*
X96482000Y-96294895D01*
X96486181Y-96252438D01*
X96496774Y-96217519D01*
X96513976Y-96185337D01*
X96537127Y-96157127D01*
X96565337Y-96133976D01*
X96597519Y-96116774D01*
X96632438Y-96106181D01*
X96674895Y-96102000D01*
X97816105Y-96102000D01*
X97858562Y-96106181D01*
G37*
G36*
X94883562Y-96106181D02*
G01*
X94918481Y-96116774D01*
X94950663Y-96133976D01*
X94978873Y-96157127D01*
X95002024Y-96185337D01*
X95019226Y-96217519D01*
X95029819Y-96252438D01*
X95034000Y-96294895D01*
X95034000Y-97761105D01*
X95029819Y-97803562D01*
X95019226Y-97838481D01*
X95002024Y-97870663D01*
X94978873Y-97898873D01*
X94950663Y-97922024D01*
X94918481Y-97939226D01*
X94883562Y-97949819D01*
X94841105Y-97954000D01*
X93699895Y-97954000D01*
X93657438Y-97949819D01*
X93622519Y-97939226D01*
X93590337Y-97922024D01*
X93562127Y-97898873D01*
X93538976Y-97870663D01*
X93521774Y-97838481D01*
X93511181Y-97803562D01*
X93507000Y-97761105D01*
X93507000Y-96294895D01*
X93511181Y-96252438D01*
X93521774Y-96217519D01*
X93538976Y-96185337D01*
X93562127Y-96157127D01*
X93590337Y-96133976D01*
X93622519Y-96116774D01*
X93657438Y-96106181D01*
X93699895Y-96102000D01*
X94841105Y-96102000D01*
X94883562Y-96106181D01*
G37*
G36*
X40873642Y-94479781D02*
G01*
X41002937Y-94533337D01*
X41019416Y-94540163D01*
X41150608Y-94627822D01*
X41262178Y-94739392D01*
X41349837Y-94870584D01*
X41349838Y-94870586D01*
X41410219Y-95016358D01*
X41441000Y-95171107D01*
X41441000Y-95328893D01*
X41410219Y-95483642D01*
X41352556Y-95622852D01*
X41349837Y-95629416D01*
X41262178Y-95760608D01*
X41150608Y-95872178D01*
X41019416Y-95959837D01*
X41019415Y-95959838D01*
X41019414Y-95959838D01*
X40873642Y-96020219D01*
X40718893Y-96051000D01*
X40561107Y-96051000D01*
X40406358Y-96020219D01*
X40260586Y-95959838D01*
X40260585Y-95959838D01*
X40260584Y-95959837D01*
X40129392Y-95872178D01*
X40017822Y-95760608D01*
X39930163Y-95629416D01*
X39927444Y-95622852D01*
X39869781Y-95483642D01*
X39839000Y-95328893D01*
X39839000Y-95171107D01*
X39869781Y-95016358D01*
X39930162Y-94870586D01*
X39930163Y-94870584D01*
X40017822Y-94739392D01*
X40129392Y-94627822D01*
X40260584Y-94540163D01*
X40277063Y-94533337D01*
X40406358Y-94479781D01*
X40561107Y-94449000D01*
X40718893Y-94449000D01*
X40873642Y-94479781D01*
G37*
G36*
X54369562Y-94454181D02*
G01*
X54404481Y-94464774D01*
X54436663Y-94481976D01*
X54464873Y-94505127D01*
X54488024Y-94533337D01*
X54505226Y-94565519D01*
X54515819Y-94600438D01*
X54520000Y-94642895D01*
X54520000Y-95784105D01*
X54515819Y-95826562D01*
X54505226Y-95861481D01*
X54488024Y-95893663D01*
X54464873Y-95921873D01*
X54436663Y-95945024D01*
X54404481Y-95962226D01*
X54369562Y-95972819D01*
X54327105Y-95977000D01*
X52860895Y-95977000D01*
X52818438Y-95972819D01*
X52783519Y-95962226D01*
X52751337Y-95945024D01*
X52723127Y-95921873D01*
X52699976Y-95893663D01*
X52682774Y-95861481D01*
X52672181Y-95826562D01*
X52668000Y-95784105D01*
X52668000Y-94642895D01*
X52672181Y-94600438D01*
X52682774Y-94565519D01*
X52699976Y-94533337D01*
X52723127Y-94505127D01*
X52751337Y-94481976D01*
X52783519Y-94464774D01*
X52818438Y-94454181D01*
X52860895Y-94450000D01*
X54327105Y-94450000D01*
X54369562Y-94454181D01*
G37*
G36*
X91762562Y-93820181D02*
G01*
X91797481Y-93830774D01*
X91829663Y-93847976D01*
X91857873Y-93871127D01*
X91881024Y-93899337D01*
X91898226Y-93931519D01*
X91908819Y-93966438D01*
X91913000Y-94008895D01*
X91913000Y-95475105D01*
X91908819Y-95517562D01*
X91898226Y-95552481D01*
X91881024Y-95584663D01*
X91857873Y-95612873D01*
X91829663Y-95636024D01*
X91797481Y-95653226D01*
X91762562Y-95663819D01*
X91720105Y-95668000D01*
X90578895Y-95668000D01*
X90536438Y-95663819D01*
X90501519Y-95653226D01*
X90469337Y-95636024D01*
X90441127Y-95612873D01*
X90417976Y-95584663D01*
X90400774Y-95552481D01*
X90390181Y-95517562D01*
X90386000Y-95475105D01*
X90386000Y-94008895D01*
X90390181Y-93966438D01*
X90400774Y-93931519D01*
X90417976Y-93899337D01*
X90441127Y-93871127D01*
X90469337Y-93847976D01*
X90501519Y-93830774D01*
X90536438Y-93820181D01*
X90578895Y-93816000D01*
X91720105Y-93816000D01*
X91762562Y-93820181D01*
G37*
G36*
X88787562Y-93820181D02*
G01*
X88822481Y-93830774D01*
X88854663Y-93847976D01*
X88882873Y-93871127D01*
X88906024Y-93899337D01*
X88923226Y-93931519D01*
X88933819Y-93966438D01*
X88938000Y-94008895D01*
X88938000Y-95475105D01*
X88933819Y-95517562D01*
X88923226Y-95552481D01*
X88906024Y-95584663D01*
X88882873Y-95612873D01*
X88854663Y-95636024D01*
X88822481Y-95653226D01*
X88787562Y-95663819D01*
X88745105Y-95668000D01*
X87603895Y-95668000D01*
X87561438Y-95663819D01*
X87526519Y-95653226D01*
X87494337Y-95636024D01*
X87466127Y-95612873D01*
X87442976Y-95584663D01*
X87425774Y-95552481D01*
X87415181Y-95517562D01*
X87411000Y-95475105D01*
X87411000Y-94008895D01*
X87415181Y-93966438D01*
X87425774Y-93931519D01*
X87442976Y-93899337D01*
X87466127Y-93871127D01*
X87494337Y-93847976D01*
X87526519Y-93830774D01*
X87561438Y-93820181D01*
X87603895Y-93816000D01*
X88745105Y-93816000D01*
X88787562Y-93820181D01*
G37*
G36*
X101459512Y-93337927D02*
G01*
X101608812Y-93367624D01*
X101772784Y-93435544D01*
X101920354Y-93534147D01*
X102045853Y-93659646D01*
X102144456Y-93807216D01*
X102212376Y-93971188D01*
X102247000Y-94145259D01*
X102247000Y-94322741D01*
X102212376Y-94496812D01*
X102144456Y-94660784D01*
X102045853Y-94808354D01*
X101920354Y-94933853D01*
X101772784Y-95032456D01*
X101608812Y-95100376D01*
X101459512Y-95130073D01*
X101434742Y-95135000D01*
X101257258Y-95135000D01*
X101232488Y-95130073D01*
X101083188Y-95100376D01*
X100919216Y-95032456D01*
X100771646Y-94933853D01*
X100646147Y-94808354D01*
X100547544Y-94660784D01*
X100479624Y-94496812D01*
X100445000Y-94322741D01*
X100445000Y-94145259D01*
X100479624Y-93971188D01*
X100547544Y-93807216D01*
X100646147Y-93659646D01*
X100771646Y-93534147D01*
X100919216Y-93435544D01*
X101083188Y-93367624D01*
X101232488Y-93337927D01*
X101257258Y-93333000D01*
X101434742Y-93333000D01*
X101459512Y-93337927D01*
G37*
G36*
X40873642Y-91939781D02*
G01*
X41002937Y-91993337D01*
X41019416Y-92000163D01*
X41150608Y-92087822D01*
X41262178Y-92199392D01*
X41349837Y-92330584D01*
X41349838Y-92330586D01*
X41410219Y-92476358D01*
X41441000Y-92631107D01*
X41441000Y-92788893D01*
X41410219Y-92943642D01*
X41387778Y-92997819D01*
X41349837Y-93089416D01*
X41262178Y-93220608D01*
X41150608Y-93332178D01*
X41019416Y-93419837D01*
X41019415Y-93419838D01*
X41019414Y-93419838D01*
X40873642Y-93480219D01*
X40718893Y-93511000D01*
X40561107Y-93511000D01*
X40406358Y-93480219D01*
X40260586Y-93419838D01*
X40260585Y-93419838D01*
X40260584Y-93419837D01*
X40129392Y-93332178D01*
X40017822Y-93220608D01*
X39930163Y-93089416D01*
X39892222Y-92997819D01*
X39869781Y-92943642D01*
X39839000Y-92788893D01*
X39839000Y-92631107D01*
X39869781Y-92476358D01*
X39930162Y-92330586D01*
X39930163Y-92330584D01*
X40017822Y-92199392D01*
X40129392Y-92087822D01*
X40260584Y-92000163D01*
X40277063Y-91993337D01*
X40406358Y-91939781D01*
X40561107Y-91909000D01*
X40718893Y-91909000D01*
X40873642Y-91939781D01*
G37*
G36*
X46495562Y-91914181D02*
G01*
X46530481Y-91924774D01*
X46562663Y-91941976D01*
X46590873Y-91965127D01*
X46614024Y-91993337D01*
X46631226Y-92025519D01*
X46641819Y-92060438D01*
X46646000Y-92102895D01*
X46646000Y-93244105D01*
X46641819Y-93286562D01*
X46631226Y-93321481D01*
X46614024Y-93353663D01*
X46590873Y-93381873D01*
X46562663Y-93405024D01*
X46530481Y-93422226D01*
X46495562Y-93432819D01*
X46453105Y-93437000D01*
X44986895Y-93437000D01*
X44944438Y-93432819D01*
X44909519Y-93422226D01*
X44877337Y-93405024D01*
X44849127Y-93381873D01*
X44825976Y-93353663D01*
X44808774Y-93321481D01*
X44798181Y-93286562D01*
X44794000Y-93244105D01*
X44794000Y-92102895D01*
X44798181Y-92060438D01*
X44808774Y-92025519D01*
X44825976Y-91993337D01*
X44849127Y-91965127D01*
X44877337Y-91941976D01*
X44909519Y-91924774D01*
X44944438Y-91914181D01*
X44986895Y-91910000D01*
X46453105Y-91910000D01*
X46495562Y-91914181D01*
G37*
G36*
X54369562Y-91479181D02*
G01*
X54404481Y-91489774D01*
X54436663Y-91506976D01*
X54464873Y-91530127D01*
X54488024Y-91558337D01*
X54505226Y-91590519D01*
X54515819Y-91625438D01*
X54520000Y-91667895D01*
X54520000Y-92809105D01*
X54515819Y-92851562D01*
X54505226Y-92886481D01*
X54488024Y-92918663D01*
X54464873Y-92946873D01*
X54436663Y-92970024D01*
X54404481Y-92987226D01*
X54369562Y-92997819D01*
X54327105Y-93002000D01*
X52860895Y-93002000D01*
X52818438Y-92997819D01*
X52783519Y-92987226D01*
X52751337Y-92970024D01*
X52723127Y-92946873D01*
X52699976Y-92918663D01*
X52682774Y-92886481D01*
X52672181Y-92851562D01*
X52668000Y-92809105D01*
X52668000Y-91667895D01*
X52672181Y-91625438D01*
X52682774Y-91590519D01*
X52699976Y-91558337D01*
X52723127Y-91530127D01*
X52751337Y-91506976D01*
X52783519Y-91489774D01*
X52818438Y-91479181D01*
X52860895Y-91475000D01*
X54327105Y-91475000D01*
X54369562Y-91479181D01*
G37*
G36*
X97604562Y-90772181D02*
G01*
X97639481Y-90782774D01*
X97671663Y-90799976D01*
X97699873Y-90823127D01*
X97723024Y-90851337D01*
X97740226Y-90883519D01*
X97750819Y-90918438D01*
X97755000Y-90960895D01*
X97755000Y-92427105D01*
X97750819Y-92469562D01*
X97740226Y-92504481D01*
X97723024Y-92536663D01*
X97699873Y-92564873D01*
X97671663Y-92588024D01*
X97639481Y-92605226D01*
X97604562Y-92615819D01*
X97562105Y-92620000D01*
X96420895Y-92620000D01*
X96378438Y-92615819D01*
X96343519Y-92605226D01*
X96311337Y-92588024D01*
X96283127Y-92564873D01*
X96259976Y-92536663D01*
X96242774Y-92504481D01*
X96232181Y-92469562D01*
X96228000Y-92427105D01*
X96228000Y-90960895D01*
X96232181Y-90918438D01*
X96242774Y-90883519D01*
X96259976Y-90851337D01*
X96283127Y-90823127D01*
X96311337Y-90799976D01*
X96343519Y-90782774D01*
X96378438Y-90772181D01*
X96420895Y-90768000D01*
X97562105Y-90768000D01*
X97604562Y-90772181D01*
G37*
G36*
X94629562Y-90772181D02*
G01*
X94664481Y-90782774D01*
X94696663Y-90799976D01*
X94724873Y-90823127D01*
X94748024Y-90851337D01*
X94765226Y-90883519D01*
X94775819Y-90918438D01*
X94780000Y-90960895D01*
X94780000Y-92427105D01*
X94775819Y-92469562D01*
X94765226Y-92504481D01*
X94748024Y-92536663D01*
X94724873Y-92564873D01*
X94696663Y-92588024D01*
X94664481Y-92605226D01*
X94629562Y-92615819D01*
X94587105Y-92620000D01*
X93445895Y-92620000D01*
X93403438Y-92615819D01*
X93368519Y-92605226D01*
X93336337Y-92588024D01*
X93308127Y-92564873D01*
X93284976Y-92536663D01*
X93267774Y-92504481D01*
X93257181Y-92469562D01*
X93253000Y-92427105D01*
X93253000Y-90960895D01*
X93257181Y-90918438D01*
X93267774Y-90883519D01*
X93284976Y-90851337D01*
X93308127Y-90823127D01*
X93336337Y-90799976D01*
X93368519Y-90782774D01*
X93403438Y-90772181D01*
X93445895Y-90768000D01*
X94587105Y-90768000D01*
X94629562Y-90772181D01*
G37*
G36*
X102247000Y-92595000D02*
G01*
X100445000Y-92595000D01*
X100445000Y-90793000D01*
X102247000Y-90793000D01*
X102247000Y-92595000D01*
G37*
G36*
X77611562Y-89756181D02*
G01*
X77646481Y-89766774D01*
X77678663Y-89783976D01*
X77706873Y-89807127D01*
X77730024Y-89835337D01*
X77747226Y-89867519D01*
X77757819Y-89902438D01*
X77762000Y-89944895D01*
X77762000Y-91411105D01*
X77757819Y-91453562D01*
X77747226Y-91488481D01*
X77730024Y-91520663D01*
X77706873Y-91548873D01*
X77678663Y-91572024D01*
X77646481Y-91589226D01*
X77611562Y-91599819D01*
X77569105Y-91604000D01*
X76427895Y-91604000D01*
X76385438Y-91599819D01*
X76350519Y-91589226D01*
X76318337Y-91572024D01*
X76290127Y-91548873D01*
X76266976Y-91520663D01*
X76249774Y-91488481D01*
X76239181Y-91453562D01*
X76235000Y-91411105D01*
X76235000Y-89944895D01*
X76239181Y-89902438D01*
X76249774Y-89867519D01*
X76266976Y-89835337D01*
X76290127Y-89807127D01*
X76318337Y-89783976D01*
X76350519Y-89766774D01*
X76385438Y-89756181D01*
X76427895Y-89752000D01*
X77569105Y-89752000D01*
X77611562Y-89756181D01*
G37*
G36*
X80586562Y-89756181D02*
G01*
X80621481Y-89766774D01*
X80653663Y-89783976D01*
X80681873Y-89807127D01*
X80705024Y-89835337D01*
X80722226Y-89867519D01*
X80732819Y-89902438D01*
X80737000Y-89944895D01*
X80737000Y-91411105D01*
X80732819Y-91453562D01*
X80722226Y-91488481D01*
X80705024Y-91520663D01*
X80681873Y-91548873D01*
X80653663Y-91572024D01*
X80621481Y-91589226D01*
X80586562Y-91599819D01*
X80544105Y-91604000D01*
X79402895Y-91604000D01*
X79360438Y-91599819D01*
X79325519Y-91589226D01*
X79293337Y-91572024D01*
X79265127Y-91548873D01*
X79241976Y-91520663D01*
X79224774Y-91488481D01*
X79214181Y-91453562D01*
X79210000Y-91411105D01*
X79210000Y-89944895D01*
X79214181Y-89902438D01*
X79224774Y-89867519D01*
X79241976Y-89835337D01*
X79265127Y-89807127D01*
X79293337Y-89783976D01*
X79325519Y-89766774D01*
X79360438Y-89756181D01*
X79402895Y-89752000D01*
X80544105Y-89752000D01*
X80586562Y-89756181D01*
G37*
G36*
X82671009Y-89936357D02*
G01*
X82769059Y-89955860D01*
X82905732Y-90012472D01*
X83028735Y-90094660D01*
X83133340Y-90199265D01*
X83198393Y-90296624D01*
X83215529Y-90322270D01*
X83272140Y-90458941D01*
X83301000Y-90604032D01*
X83301000Y-90751968D01*
X83272140Y-90897059D01*
X83254263Y-90940219D01*
X83215528Y-91033732D01*
X83133340Y-91156735D01*
X83028735Y-91261340D01*
X82905732Y-91343528D01*
X82905731Y-91343529D01*
X82905730Y-91343529D01*
X82769059Y-91400140D01*
X82623968Y-91429000D01*
X82476032Y-91429000D01*
X82330941Y-91400140D01*
X82194270Y-91343529D01*
X82194269Y-91343529D01*
X82194268Y-91343528D01*
X82071265Y-91261340D01*
X81966660Y-91156735D01*
X81884472Y-91033732D01*
X81845738Y-90940219D01*
X81827860Y-90897059D01*
X81799000Y-90751968D01*
X81799000Y-90604032D01*
X81827860Y-90458941D01*
X81884471Y-90322270D01*
X81901607Y-90296624D01*
X81966660Y-90199265D01*
X82071265Y-90094660D01*
X82194268Y-90012472D01*
X82330941Y-89955860D01*
X82428991Y-89936357D01*
X82476032Y-89927000D01*
X82623968Y-89927000D01*
X82671009Y-89936357D01*
G37*
G36*
X90291009Y-89936357D02*
G01*
X90389059Y-89955860D01*
X90525732Y-90012472D01*
X90648735Y-90094660D01*
X90753340Y-90199265D01*
X90818393Y-90296624D01*
X90835529Y-90322270D01*
X90892140Y-90458941D01*
X90921000Y-90604032D01*
X90921000Y-90751968D01*
X90892140Y-90897059D01*
X90874263Y-90940219D01*
X90835528Y-91033732D01*
X90753340Y-91156735D01*
X90648735Y-91261340D01*
X90525732Y-91343528D01*
X90525731Y-91343529D01*
X90525730Y-91343529D01*
X90389059Y-91400140D01*
X90243968Y-91429000D01*
X90096032Y-91429000D01*
X89950941Y-91400140D01*
X89814270Y-91343529D01*
X89814269Y-91343529D01*
X89814268Y-91343528D01*
X89691265Y-91261340D01*
X89586660Y-91156735D01*
X89504472Y-91033732D01*
X89465738Y-90940219D01*
X89447860Y-90897059D01*
X89419000Y-90751968D01*
X89419000Y-90604032D01*
X89447860Y-90458941D01*
X89504471Y-90322270D01*
X89521607Y-90296624D01*
X89586660Y-90199265D01*
X89691265Y-90094660D01*
X89814268Y-90012472D01*
X89950941Y-89955860D01*
X90048991Y-89936357D01*
X90096032Y-89927000D01*
X90243968Y-89927000D01*
X90291009Y-89936357D01*
G37*
G36*
X68779000Y-91410000D02*
G01*
X67177000Y-91410000D01*
X67177000Y-90708000D01*
X68779000Y-90708000D01*
X68779000Y-91410000D01*
G37*
G36*
X63379000Y-91410000D02*
G01*
X61777000Y-91410000D01*
X61777000Y-90708000D01*
X63379000Y-90708000D01*
X63379000Y-91410000D01*
G37*
G36*
X40873642Y-89399781D02*
G01*
X40965910Y-89438000D01*
X41019416Y-89460163D01*
X41150608Y-89547822D01*
X41262178Y-89659392D01*
X41349837Y-89790584D01*
X41349838Y-89790586D01*
X41410219Y-89936358D01*
X41441000Y-90091107D01*
X41441000Y-90248893D01*
X41410219Y-90403642D01*
X41387778Y-90457819D01*
X41349837Y-90549416D01*
X41262178Y-90680608D01*
X41150608Y-90792178D01*
X41019416Y-90879837D01*
X41019415Y-90879838D01*
X41019414Y-90879838D01*
X40873642Y-90940219D01*
X40718893Y-90971000D01*
X40561107Y-90971000D01*
X40406358Y-90940219D01*
X40260586Y-90879838D01*
X40260585Y-90879838D01*
X40260584Y-90879837D01*
X40129392Y-90792178D01*
X40017822Y-90680608D01*
X39930163Y-90549416D01*
X39892222Y-90457819D01*
X39869781Y-90403642D01*
X39839000Y-90248893D01*
X39839000Y-90091107D01*
X39869781Y-89936358D01*
X39930162Y-89790586D01*
X39930163Y-89790584D01*
X40017822Y-89659392D01*
X40129392Y-89547822D01*
X40260584Y-89460163D01*
X40314090Y-89438000D01*
X40406358Y-89399781D01*
X40561107Y-89369000D01*
X40718893Y-89369000D01*
X40873642Y-89399781D01*
G37*
G36*
X46495562Y-88939181D02*
G01*
X46530481Y-88949774D01*
X46562663Y-88966976D01*
X46590873Y-88990127D01*
X46614024Y-89018337D01*
X46631226Y-89050519D01*
X46641819Y-89085438D01*
X46646000Y-89127895D01*
X46646000Y-90269105D01*
X46641819Y-90311562D01*
X46631226Y-90346481D01*
X46614024Y-90378663D01*
X46590873Y-90406873D01*
X46562663Y-90430024D01*
X46530481Y-90447226D01*
X46495562Y-90457819D01*
X46453105Y-90462000D01*
X44986895Y-90462000D01*
X44944438Y-90457819D01*
X44909519Y-90447226D01*
X44877337Y-90430024D01*
X44849127Y-90406873D01*
X44825976Y-90378663D01*
X44808774Y-90346481D01*
X44798181Y-90311562D01*
X44794000Y-90269105D01*
X44794000Y-89127895D01*
X44798181Y-89085438D01*
X44808774Y-89050519D01*
X44825976Y-89018337D01*
X44849127Y-88990127D01*
X44877337Y-88966976D01*
X44909519Y-88949774D01*
X44944438Y-88939181D01*
X44986895Y-88935000D01*
X46453105Y-88935000D01*
X46495562Y-88939181D01*
G37*
G36*
X63379000Y-90140000D02*
G01*
X61777000Y-90140000D01*
X61777000Y-89438000D01*
X63379000Y-89438000D01*
X63379000Y-90140000D01*
G37*
G36*
X68779000Y-90140000D02*
G01*
X67177000Y-90140000D01*
X67177000Y-89438000D01*
X68779000Y-89438000D01*
X68779000Y-90140000D01*
G37*
G36*
X68779000Y-88870000D02*
G01*
X67177000Y-88870000D01*
X67177000Y-88168000D01*
X68779000Y-88168000D01*
X68779000Y-88870000D01*
G37*
G36*
X63379000Y-88870000D02*
G01*
X61777000Y-88870000D01*
X61777000Y-88168000D01*
X63379000Y-88168000D01*
X63379000Y-88870000D01*
G37*
G36*
X73749000Y-87659000D02*
G01*
X72047000Y-87659000D01*
X72047000Y-84057000D01*
X73749000Y-84057000D01*
X73749000Y-87659000D01*
G37*
G36*
X68779000Y-87600000D02*
G01*
X67177000Y-87600000D01*
X67177000Y-86898000D01*
X68779000Y-86898000D01*
X68779000Y-87600000D01*
G37*
G36*
X63379000Y-87600000D02*
G01*
X61777000Y-87600000D01*
X61777000Y-86898000D01*
X63379000Y-86898000D01*
X63379000Y-87600000D01*
G37*
G36*
X90746562Y-84676181D02*
G01*
X90781481Y-84686774D01*
X90813663Y-84703976D01*
X90841873Y-84727127D01*
X90865024Y-84755337D01*
X90882226Y-84787519D01*
X90892819Y-84822438D01*
X90897000Y-84864895D01*
X90897000Y-86331105D01*
X90892819Y-86373562D01*
X90882226Y-86408481D01*
X90865024Y-86440663D01*
X90841873Y-86468873D01*
X90813663Y-86492024D01*
X90781481Y-86509226D01*
X90746562Y-86519819D01*
X90704105Y-86524000D01*
X89562895Y-86524000D01*
X89520438Y-86519819D01*
X89485519Y-86509226D01*
X89453337Y-86492024D01*
X89425127Y-86468873D01*
X89401976Y-86440663D01*
X89384774Y-86408481D01*
X89374181Y-86373562D01*
X89370000Y-86331105D01*
X89370000Y-84864895D01*
X89374181Y-84822438D01*
X89384774Y-84787519D01*
X89401976Y-84755337D01*
X89425127Y-84727127D01*
X89453337Y-84703976D01*
X89485519Y-84686774D01*
X89520438Y-84676181D01*
X89562895Y-84672000D01*
X90704105Y-84672000D01*
X90746562Y-84676181D01*
G37*
G36*
X87771562Y-84676181D02*
G01*
X87806481Y-84686774D01*
X87838663Y-84703976D01*
X87866873Y-84727127D01*
X87890024Y-84755337D01*
X87907226Y-84787519D01*
X87917819Y-84822438D01*
X87922000Y-84864895D01*
X87922000Y-86331105D01*
X87917819Y-86373562D01*
X87907226Y-86408481D01*
X87890024Y-86440663D01*
X87866873Y-86468873D01*
X87838663Y-86492024D01*
X87806481Y-86509226D01*
X87771562Y-86519819D01*
X87729105Y-86524000D01*
X86587895Y-86524000D01*
X86545438Y-86519819D01*
X86510519Y-86509226D01*
X86478337Y-86492024D01*
X86450127Y-86468873D01*
X86426976Y-86440663D01*
X86409774Y-86408481D01*
X86399181Y-86373562D01*
X86395000Y-86331105D01*
X86395000Y-84864895D01*
X86399181Y-84822438D01*
X86409774Y-84787519D01*
X86426976Y-84755337D01*
X86450127Y-84727127D01*
X86478337Y-84703976D01*
X86510519Y-84686774D01*
X86545438Y-84676181D01*
X86587895Y-84672000D01*
X87729105Y-84672000D01*
X87771562Y-84676181D01*
G37*
G36*
X63379000Y-86330000D02*
G01*
X61777000Y-86330000D01*
X61777000Y-85628000D01*
X63379000Y-85628000D01*
X63379000Y-86330000D01*
G37*
G36*
X68779000Y-86330000D02*
G01*
X67177000Y-86330000D01*
X67177000Y-85628000D01*
X68779000Y-85628000D01*
X68779000Y-86330000D01*
G37*
G36*
X83425512Y-83431927D02*
G01*
X83574812Y-83461624D01*
X83738784Y-83529544D01*
X83886354Y-83628147D01*
X84011853Y-83753646D01*
X84110456Y-83901216D01*
X84178376Y-84065188D01*
X84213000Y-84239259D01*
X84213000Y-84416741D01*
X84178376Y-84590812D01*
X84110456Y-84754784D01*
X84011853Y-84902354D01*
X83886354Y-85027853D01*
X83738784Y-85126456D01*
X83574812Y-85194376D01*
X83425512Y-85224073D01*
X83400742Y-85229000D01*
X83223258Y-85229000D01*
X83198488Y-85224073D01*
X83049188Y-85194376D01*
X82885216Y-85126456D01*
X82737646Y-85027853D01*
X82612147Y-84902354D01*
X82513544Y-84754784D01*
X82445624Y-84590812D01*
X82411000Y-84416741D01*
X82411000Y-84239259D01*
X82445624Y-84065188D01*
X82513544Y-83901216D01*
X82612147Y-83753646D01*
X82737646Y-83628147D01*
X82885216Y-83529544D01*
X83049188Y-83461624D01*
X83198488Y-83431927D01*
X83223258Y-83427000D01*
X83400742Y-83427000D01*
X83425512Y-83431927D01*
G37*
G36*
X80885512Y-83431927D02*
G01*
X81034812Y-83461624D01*
X81198784Y-83529544D01*
X81346354Y-83628147D01*
X81471853Y-83753646D01*
X81570456Y-83901216D01*
X81638376Y-84065188D01*
X81673000Y-84239259D01*
X81673000Y-84416741D01*
X81638376Y-84590812D01*
X81570456Y-84754784D01*
X81471853Y-84902354D01*
X81346354Y-85027853D01*
X81198784Y-85126456D01*
X81034812Y-85194376D01*
X80885512Y-85224073D01*
X80860742Y-85229000D01*
X80683258Y-85229000D01*
X80658488Y-85224073D01*
X80509188Y-85194376D01*
X80345216Y-85126456D01*
X80197646Y-85027853D01*
X80072147Y-84902354D01*
X79973544Y-84754784D01*
X79905624Y-84590812D01*
X79871000Y-84416741D01*
X79871000Y-84239259D01*
X79905624Y-84065188D01*
X79973544Y-83901216D01*
X80072147Y-83753646D01*
X80197646Y-83628147D01*
X80345216Y-83529544D01*
X80509188Y-83461624D01*
X80658488Y-83431927D01*
X80683258Y-83427000D01*
X80860742Y-83427000D01*
X80885512Y-83431927D01*
G37*
G36*
X79133000Y-85229000D02*
G01*
X77331000Y-85229000D01*
X77331000Y-83427000D01*
X79133000Y-83427000D01*
X79133000Y-85229000D01*
G37*
G36*
X68779000Y-85060000D02*
G01*
X67177000Y-85060000D01*
X67177000Y-84358000D01*
X68779000Y-84358000D01*
X68779000Y-85060000D01*
G37*
G36*
X63379000Y-85060000D02*
G01*
X61777000Y-85060000D01*
X61777000Y-84358000D01*
X63379000Y-84358000D01*
X63379000Y-85060000D01*
G37*
G36*
X101459512Y-82923927D02*
G01*
X101608812Y-82953624D01*
X101772784Y-83021544D01*
X101920354Y-83120147D01*
X102045853Y-83245646D01*
X102144456Y-83393216D01*
X102212376Y-83557188D01*
X102247000Y-83731259D01*
X102247000Y-83908741D01*
X102212376Y-84082812D01*
X102144456Y-84246784D01*
X102045853Y-84394354D01*
X101920354Y-84519853D01*
X101772784Y-84618456D01*
X101608812Y-84686376D01*
X101459512Y-84716073D01*
X101434742Y-84721000D01*
X101257258Y-84721000D01*
X101232488Y-84716073D01*
X101083188Y-84686376D01*
X100919216Y-84618456D01*
X100771646Y-84519853D01*
X100646147Y-84394354D01*
X100547544Y-84246784D01*
X100479624Y-84082812D01*
X100445000Y-83908741D01*
X100445000Y-83731259D01*
X100479624Y-83557188D01*
X100547544Y-83393216D01*
X100646147Y-83245646D01*
X100771646Y-83120147D01*
X100919216Y-83021544D01*
X101083188Y-82953624D01*
X101232488Y-82923927D01*
X101257258Y-82919000D01*
X101434742Y-82919000D01*
X101459512Y-82923927D01*
G37*
G36*
X63379000Y-83790000D02*
G01*
X61777000Y-83790000D01*
X61777000Y-83088000D01*
X63379000Y-83088000D01*
X63379000Y-83790000D01*
G37*
G36*
X68779000Y-83790000D02*
G01*
X67177000Y-83790000D01*
X67177000Y-83088000D01*
X68779000Y-83088000D01*
X68779000Y-83790000D01*
G37*
G36*
X59957562Y-81754181D02*
G01*
X59992481Y-81764774D01*
X60024663Y-81781976D01*
X60052873Y-81805127D01*
X60076024Y-81833337D01*
X60093226Y-81865519D01*
X60103819Y-81900438D01*
X60108000Y-81942895D01*
X60108000Y-83084105D01*
X60103819Y-83126562D01*
X60093226Y-83161481D01*
X60076024Y-83193663D01*
X60052873Y-83221873D01*
X60024663Y-83245024D01*
X59992481Y-83262226D01*
X59957562Y-83272819D01*
X59915105Y-83277000D01*
X58448895Y-83277000D01*
X58406438Y-83272819D01*
X58371519Y-83262226D01*
X58339337Y-83245024D01*
X58311127Y-83221873D01*
X58287976Y-83193663D01*
X58270774Y-83161481D01*
X58260181Y-83126562D01*
X58256000Y-83084105D01*
X58256000Y-81942895D01*
X58260181Y-81900438D01*
X58270774Y-81865519D01*
X58287976Y-81833337D01*
X58311127Y-81805127D01*
X58339337Y-81781976D01*
X58371519Y-81764774D01*
X58406438Y-81754181D01*
X58448895Y-81750000D01*
X59915105Y-81750000D01*
X59957562Y-81754181D01*
G37*
G36*
X68779000Y-82520000D02*
G01*
X67177000Y-82520000D01*
X67177000Y-81818000D01*
X68779000Y-81818000D01*
X68779000Y-82520000D01*
G37*
G36*
X63379000Y-82520000D02*
G01*
X61777000Y-82520000D01*
X61777000Y-81818000D01*
X63379000Y-81818000D01*
X63379000Y-82520000D01*
G37*
G36*
X46595512Y-80383927D02*
G01*
X46744812Y-80413624D01*
X46908784Y-80481544D01*
X47056354Y-80580147D01*
X47181853Y-80705646D01*
X47280456Y-80853216D01*
X47348376Y-81017188D01*
X47383000Y-81191259D01*
X47383000Y-81368741D01*
X47348376Y-81542812D01*
X47280456Y-81706784D01*
X47181853Y-81854354D01*
X47056354Y-81979853D01*
X46908784Y-82078456D01*
X46744812Y-82146376D01*
X46595512Y-82176073D01*
X46570742Y-82181000D01*
X46393258Y-82181000D01*
X46368488Y-82176073D01*
X46219188Y-82146376D01*
X46055216Y-82078456D01*
X45907646Y-81979853D01*
X45782147Y-81854354D01*
X45683544Y-81706784D01*
X45615624Y-81542812D01*
X45581000Y-81368741D01*
X45581000Y-81191259D01*
X45615624Y-81017188D01*
X45683544Y-80853216D01*
X45782147Y-80705646D01*
X45907646Y-80580147D01*
X46055216Y-80481544D01*
X46219188Y-80413624D01*
X46368488Y-80383927D01*
X46393258Y-80379000D01*
X46570742Y-80379000D01*
X46595512Y-80383927D01*
G37*
G36*
X102247000Y-82181000D02*
G01*
X100445000Y-82181000D01*
X100445000Y-80379000D01*
X102247000Y-80379000D01*
X102247000Y-82181000D01*
G37*
G36*
X42303000Y-82181000D02*
G01*
X40501000Y-82181000D01*
X40501000Y-80379000D01*
X42303000Y-80379000D01*
X42303000Y-82181000D01*
G37*
G36*
X44055512Y-80383927D02*
G01*
X44204812Y-80413624D01*
X44368784Y-80481544D01*
X44516354Y-80580147D01*
X44641853Y-80705646D01*
X44740456Y-80853216D01*
X44808376Y-81017188D01*
X44843000Y-81191259D01*
X44843000Y-81368741D01*
X44808376Y-81542812D01*
X44740456Y-81706784D01*
X44641853Y-81854354D01*
X44516354Y-81979853D01*
X44368784Y-82078456D01*
X44204812Y-82146376D01*
X44055512Y-82176073D01*
X44030742Y-82181000D01*
X43853258Y-82181000D01*
X43828488Y-82176073D01*
X43679188Y-82146376D01*
X43515216Y-82078456D01*
X43367646Y-81979853D01*
X43242147Y-81854354D01*
X43143544Y-81706784D01*
X43075624Y-81542812D01*
X43041000Y-81368741D01*
X43041000Y-81191259D01*
X43075624Y-81017188D01*
X43143544Y-80853216D01*
X43242147Y-80705646D01*
X43367646Y-80580147D01*
X43515216Y-80481544D01*
X43679188Y-80413624D01*
X43828488Y-80383927D01*
X43853258Y-80379000D01*
X44030742Y-80379000D01*
X44055512Y-80383927D01*
G37*
G36*
X73749000Y-82059000D02*
G01*
X72047000Y-82059000D01*
X72047000Y-78457000D01*
X73749000Y-78457000D01*
X73749000Y-82059000D01*
G37*
G36*
X90555000Y-82019000D02*
G01*
X89653000Y-82019000D01*
X89653000Y-81017000D01*
X90555000Y-81017000D01*
X90555000Y-82019000D01*
G37*
G36*
X88655000Y-82019000D02*
G01*
X87753000Y-82019000D01*
X87753000Y-81017000D01*
X88655000Y-81017000D01*
X88655000Y-82019000D01*
G37*
G36*
X59957562Y-78779181D02*
G01*
X59992481Y-78789774D01*
X60024663Y-78806976D01*
X60052873Y-78830127D01*
X60076024Y-78858337D01*
X60093226Y-78890519D01*
X60103819Y-78925438D01*
X60108000Y-78967895D01*
X60108000Y-80109105D01*
X60103819Y-80151562D01*
X60093226Y-80186481D01*
X60076024Y-80218663D01*
X60052873Y-80246873D01*
X60024663Y-80270024D01*
X59992481Y-80287226D01*
X59957562Y-80297819D01*
X59915105Y-80302000D01*
X58448895Y-80302000D01*
X58406438Y-80297819D01*
X58371519Y-80287226D01*
X58339337Y-80270024D01*
X58311127Y-80246873D01*
X58287976Y-80218663D01*
X58270774Y-80186481D01*
X58260181Y-80151562D01*
X58256000Y-80109105D01*
X58256000Y-78967895D01*
X58260181Y-78925438D01*
X58270774Y-78890519D01*
X58287976Y-78858337D01*
X58311127Y-78830127D01*
X58339337Y-78806976D01*
X58371519Y-78789774D01*
X58406438Y-78779181D01*
X58448895Y-78775000D01*
X59915105Y-78775000D01*
X59957562Y-78779181D01*
G37*
G36*
X89605000Y-80019000D02*
G01*
X88703000Y-80019000D01*
X88703000Y-79017000D01*
X89605000Y-79017000D01*
X89605000Y-80019000D01*
G37*
M02*
