G04 #@! TF.GenerationSoftware,KiCad,Pcbnew,5.1.6-c6e7f7d~87~ubuntu20.04.1*
G04 #@! TF.CreationDate,2020-07-23T13:09:22+02:00*
G04 #@! TF.ProjectId,lotusble,6c6f7475-7362-46c6-952e-6b696361645f,rev?*
G04 #@! TF.SameCoordinates,Original*
G04 #@! TF.FileFunction,Paste,Bot*
G04 #@! TF.FilePolarity,Positive*
%FSLAX46Y46*%
G04 Gerber Fmt 4.6, Leading zero omitted, Abs format (unit mm)*
G04 Created by KiCad (PCBNEW 5.1.6-c6e7f7d~87~ubuntu20.04.1) date 2020-07-23 13:09:22*
%MOMM*%
%LPD*%
G01*
G04 APERTURE LIST*
%ADD10R,1.600000X3.500000*%
%ADD11R,1.500000X0.600000*%
%ADD12R,0.800000X0.900000*%
G04 APERTURE END LIST*
G36*
G01*
X93558000Y-97653000D02*
X93558000Y-96403000D01*
G75*
G02*
X93808000Y-96153000I250000J0D01*
G01*
X94733000Y-96153000D01*
G75*
G02*
X94983000Y-96403000I0J-250000D01*
G01*
X94983000Y-97653000D01*
G75*
G02*
X94733000Y-97903000I-250000J0D01*
G01*
X93808000Y-97903000D01*
G75*
G02*
X93558000Y-97653000I0J250000D01*
G01*
G37*
G36*
G01*
X96533000Y-97653000D02*
X96533000Y-96403000D01*
G75*
G02*
X96783000Y-96153000I250000J0D01*
G01*
X97708000Y-96153000D01*
G75*
G02*
X97958000Y-96403000I0J-250000D01*
G01*
X97958000Y-97653000D01*
G75*
G02*
X97708000Y-97903000I-250000J0D01*
G01*
X96783000Y-97903000D01*
G75*
G02*
X96533000Y-97653000I0J250000D01*
G01*
G37*
G36*
G01*
X59807000Y-83226000D02*
X58557000Y-83226000D01*
G75*
G02*
X58307000Y-82976000I0J250000D01*
G01*
X58307000Y-82051000D01*
G75*
G02*
X58557000Y-81801000I250000J0D01*
G01*
X59807000Y-81801000D01*
G75*
G02*
X60057000Y-82051000I0J-250000D01*
G01*
X60057000Y-82976000D01*
G75*
G02*
X59807000Y-83226000I-250000J0D01*
G01*
G37*
G36*
G01*
X59807000Y-80251000D02*
X58557000Y-80251000D01*
G75*
G02*
X58307000Y-80001000I0J250000D01*
G01*
X58307000Y-79076000D01*
G75*
G02*
X58557000Y-78826000I250000J0D01*
G01*
X59807000Y-78826000D01*
G75*
G02*
X60057000Y-79076000I0J-250000D01*
G01*
X60057000Y-80001000D01*
G75*
G02*
X59807000Y-80251000I-250000J0D01*
G01*
G37*
G36*
G01*
X92697000Y-111135000D02*
X92697000Y-112385000D01*
G75*
G02*
X92447000Y-112635000I-250000J0D01*
G01*
X91522000Y-112635000D01*
G75*
G02*
X91272000Y-112385000I0J250000D01*
G01*
X91272000Y-111135000D01*
G75*
G02*
X91522000Y-110885000I250000J0D01*
G01*
X92447000Y-110885000D01*
G75*
G02*
X92697000Y-111135000I0J-250000D01*
G01*
G37*
G36*
G01*
X95672000Y-111135000D02*
X95672000Y-112385000D01*
G75*
G02*
X95422000Y-112635000I-250000J0D01*
G01*
X94497000Y-112635000D01*
G75*
G02*
X94247000Y-112385000I0J250000D01*
G01*
X94247000Y-111135000D01*
G75*
G02*
X94497000Y-110885000I250000J0D01*
G01*
X95422000Y-110885000D01*
G75*
G02*
X95672000Y-111135000I0J-250000D01*
G01*
G37*
G36*
G01*
X48936000Y-98943000D02*
X48936000Y-100193000D01*
G75*
G02*
X48686000Y-100443000I-250000J0D01*
G01*
X47761000Y-100443000D01*
G75*
G02*
X47511000Y-100193000I0J250000D01*
G01*
X47511000Y-98943000D01*
G75*
G02*
X47761000Y-98693000I250000J0D01*
G01*
X48686000Y-98693000D01*
G75*
G02*
X48936000Y-98943000I0J-250000D01*
G01*
G37*
G36*
G01*
X45961000Y-98943000D02*
X45961000Y-100193000D01*
G75*
G02*
X45711000Y-100443000I-250000J0D01*
G01*
X44786000Y-100443000D01*
G75*
G02*
X44536000Y-100193000I0J250000D01*
G01*
X44536000Y-98943000D01*
G75*
G02*
X44786000Y-98693000I250000J0D01*
G01*
X45711000Y-98693000D01*
G75*
G02*
X45961000Y-98943000I0J-250000D01*
G01*
G37*
G36*
G01*
X54219000Y-95926000D02*
X52969000Y-95926000D01*
G75*
G02*
X52719000Y-95676000I0J250000D01*
G01*
X52719000Y-94751000D01*
G75*
G02*
X52969000Y-94501000I250000J0D01*
G01*
X54219000Y-94501000D01*
G75*
G02*
X54469000Y-94751000I0J-250000D01*
G01*
X54469000Y-95676000D01*
G75*
G02*
X54219000Y-95926000I-250000J0D01*
G01*
G37*
G36*
G01*
X54219000Y-92951000D02*
X52969000Y-92951000D01*
G75*
G02*
X52719000Y-92701000I0J250000D01*
G01*
X52719000Y-91776000D01*
G75*
G02*
X52969000Y-91526000I250000J0D01*
G01*
X54219000Y-91526000D01*
G75*
G02*
X54469000Y-91776000I0J-250000D01*
G01*
X54469000Y-92701000D01*
G75*
G02*
X54219000Y-92951000I-250000J0D01*
G01*
G37*
G36*
G01*
X46345000Y-90411000D02*
X45095000Y-90411000D01*
G75*
G02*
X44845000Y-90161000I0J250000D01*
G01*
X44845000Y-89236000D01*
G75*
G02*
X45095000Y-88986000I250000J0D01*
G01*
X46345000Y-88986000D01*
G75*
G02*
X46595000Y-89236000I0J-250000D01*
G01*
X46595000Y-90161000D01*
G75*
G02*
X46345000Y-90411000I-250000J0D01*
G01*
G37*
G36*
G01*
X46345000Y-93386000D02*
X45095000Y-93386000D01*
G75*
G02*
X44845000Y-93136000I0J250000D01*
G01*
X44845000Y-92211000D01*
G75*
G02*
X45095000Y-91961000I250000J0D01*
G01*
X46345000Y-91961000D01*
G75*
G02*
X46595000Y-92211000I0J-250000D01*
G01*
X46595000Y-93136000D01*
G75*
G02*
X46345000Y-93386000I-250000J0D01*
G01*
G37*
G36*
G01*
X95672000Y-100975000D02*
X95672000Y-102225000D01*
G75*
G02*
X95422000Y-102475000I-250000J0D01*
G01*
X94497000Y-102475000D01*
G75*
G02*
X94247000Y-102225000I0J250000D01*
G01*
X94247000Y-100975000D01*
G75*
G02*
X94497000Y-100725000I250000J0D01*
G01*
X95422000Y-100725000D01*
G75*
G02*
X95672000Y-100975000I0J-250000D01*
G01*
G37*
G36*
G01*
X92697000Y-100975000D02*
X92697000Y-102225000D01*
G75*
G02*
X92447000Y-102475000I-250000J0D01*
G01*
X91522000Y-102475000D01*
G75*
G02*
X91272000Y-102225000I0J250000D01*
G01*
X91272000Y-100975000D01*
G75*
G02*
X91522000Y-100725000I250000J0D01*
G01*
X92447000Y-100725000D01*
G75*
G02*
X92697000Y-100975000I0J-250000D01*
G01*
G37*
G36*
G01*
X92697000Y-106055000D02*
X92697000Y-107305000D01*
G75*
G02*
X92447000Y-107555000I-250000J0D01*
G01*
X91522000Y-107555000D01*
G75*
G02*
X91272000Y-107305000I0J250000D01*
G01*
X91272000Y-106055000D01*
G75*
G02*
X91522000Y-105805000I250000J0D01*
G01*
X92447000Y-105805000D01*
G75*
G02*
X92697000Y-106055000I0J-250000D01*
G01*
G37*
G36*
G01*
X95672000Y-106055000D02*
X95672000Y-107305000D01*
G75*
G02*
X95422000Y-107555000I-250000J0D01*
G01*
X94497000Y-107555000D01*
G75*
G02*
X94247000Y-107305000I0J250000D01*
G01*
X94247000Y-106055000D01*
G75*
G02*
X94497000Y-105805000I250000J0D01*
G01*
X95422000Y-105805000D01*
G75*
G02*
X95672000Y-106055000I0J-250000D01*
G01*
G37*
G36*
G01*
X87462000Y-95367000D02*
X87462000Y-94117000D01*
G75*
G02*
X87712000Y-93867000I250000J0D01*
G01*
X88637000Y-93867000D01*
G75*
G02*
X88887000Y-94117000I0J-250000D01*
G01*
X88887000Y-95367000D01*
G75*
G02*
X88637000Y-95617000I-250000J0D01*
G01*
X87712000Y-95617000D01*
G75*
G02*
X87462000Y-95367000I0J250000D01*
G01*
G37*
G36*
G01*
X90437000Y-95367000D02*
X90437000Y-94117000D01*
G75*
G02*
X90687000Y-93867000I250000J0D01*
G01*
X91612000Y-93867000D01*
G75*
G02*
X91862000Y-94117000I0J-250000D01*
G01*
X91862000Y-95367000D01*
G75*
G02*
X91612000Y-95617000I-250000J0D01*
G01*
X90687000Y-95617000D01*
G75*
G02*
X90437000Y-95367000I0J250000D01*
G01*
G37*
D10*
X72898000Y-80258000D03*
X72898000Y-85858000D03*
G36*
G01*
X80686000Y-90053000D02*
X80686000Y-91303000D01*
G75*
G02*
X80436000Y-91553000I-250000J0D01*
G01*
X79511000Y-91553000D01*
G75*
G02*
X79261000Y-91303000I0J250000D01*
G01*
X79261000Y-90053000D01*
G75*
G02*
X79511000Y-89803000I250000J0D01*
G01*
X80436000Y-89803000D01*
G75*
G02*
X80686000Y-90053000I0J-250000D01*
G01*
G37*
G36*
G01*
X77711000Y-90053000D02*
X77711000Y-91303000D01*
G75*
G02*
X77461000Y-91553000I-250000J0D01*
G01*
X76536000Y-91553000D01*
G75*
G02*
X76286000Y-91303000I0J250000D01*
G01*
X76286000Y-90053000D01*
G75*
G02*
X76536000Y-89803000I250000J0D01*
G01*
X77461000Y-89803000D01*
G75*
G02*
X77711000Y-90053000I0J-250000D01*
G01*
G37*
G36*
G01*
X89421000Y-86223000D02*
X89421000Y-84973000D01*
G75*
G02*
X89671000Y-84723000I250000J0D01*
G01*
X90596000Y-84723000D01*
G75*
G02*
X90846000Y-84973000I0J-250000D01*
G01*
X90846000Y-86223000D01*
G75*
G02*
X90596000Y-86473000I-250000J0D01*
G01*
X89671000Y-86473000D01*
G75*
G02*
X89421000Y-86223000I0J250000D01*
G01*
G37*
G36*
G01*
X86446000Y-86223000D02*
X86446000Y-84973000D01*
G75*
G02*
X86696000Y-84723000I250000J0D01*
G01*
X87621000Y-84723000D01*
G75*
G02*
X87871000Y-84973000I0J-250000D01*
G01*
X87871000Y-86223000D01*
G75*
G02*
X87621000Y-86473000I-250000J0D01*
G01*
X86696000Y-86473000D01*
G75*
G02*
X86446000Y-86223000I0J250000D01*
G01*
G37*
G36*
G01*
X94729000Y-91069000D02*
X94729000Y-92319000D01*
G75*
G02*
X94479000Y-92569000I-250000J0D01*
G01*
X93554000Y-92569000D01*
G75*
G02*
X93304000Y-92319000I0J250000D01*
G01*
X93304000Y-91069000D01*
G75*
G02*
X93554000Y-90819000I250000J0D01*
G01*
X94479000Y-90819000D01*
G75*
G02*
X94729000Y-91069000I0J-250000D01*
G01*
G37*
G36*
G01*
X97704000Y-91069000D02*
X97704000Y-92319000D01*
G75*
G02*
X97454000Y-92569000I-250000J0D01*
G01*
X96529000Y-92569000D01*
G75*
G02*
X96279000Y-92319000I0J250000D01*
G01*
X96279000Y-91069000D01*
G75*
G02*
X96529000Y-90819000I250000J0D01*
G01*
X97454000Y-90819000D01*
G75*
G02*
X97704000Y-91069000I0J-250000D01*
G01*
G37*
D11*
X67978000Y-82169000D03*
X67978000Y-83439000D03*
X67978000Y-84709000D03*
X67978000Y-85979000D03*
X67978000Y-87249000D03*
X67978000Y-88519000D03*
X67978000Y-89789000D03*
X67978000Y-91059000D03*
X62578000Y-91059000D03*
X62578000Y-89789000D03*
X62578000Y-88519000D03*
X62578000Y-87249000D03*
X62578000Y-85979000D03*
X62578000Y-84709000D03*
X62578000Y-83439000D03*
X62578000Y-82169000D03*
D12*
X90104000Y-81518000D03*
X88204000Y-81518000D03*
X89154000Y-79518000D03*
M02*
